<svg xmlns="http://www.w3.org/2000/svg" xmlns:xlink="http://www.w3.org/1999/xlink" xmlns:fi="http://pattern.flaticon.com/" x="0" y="0" width="700" height="350" viewBox="0 0 700 350"><rect x="0px" y="0px" width="100%" height="100%" opacity="1" fill="#ffffff"/><defs><g transform="matrix(0.7221516051439199 -0.2106275461238613 0.2106275461238613 0.7221516051439199 119.07905044697335 61.97854511479483)" id="L1_0"><path d="M44.863,10.771h-9.998c1.373,1.227,2.547,2.665,3.467,4.272h6.531c1.18,0,2.137-0.956,2.137-2.136     C47,11.728,46.043,10.771,44.863,10.771z"/><path d="M44.863,16.158h-5.954c0.642,1.34,1.116,2.77,1.391,4.272h4.563c1.18,0,2.137-0.956,2.137-2.136     S46.043,16.158,44.863,16.158z"/><path d="M44.863,5.386H29.048c-0.921,0-1.696,0.584-1.998,1.398c2.365,0.502,4.541,1.504,6.437,2.874h11.377     c1.181,0,2.138-0.956,2.138-2.136S46.043,5.386,44.863,5.386z"/><path d="M29.048,4.272h15.815c1.18,0,2.137-0.956,2.137-2.136C47,0.957,46.043,0,44.863,0H29.048     c-1.181,0-2.137,0.957-2.137,2.137C26.911,3.317,27.867,4.272,29.048,4.272z"/><path d="M44.863,21.542h-4.393c0.073,0.644,0.12,1.295,0.12,1.958c0,0.786-0.071,1.557-0.175,2.314h4.447     c1.18,0,2.137-0.957,2.137-2.137S46.043,21.542,44.863,21.542z"/><path d="M44.863,26.928h-4.619c-0.309,1.51-0.829,2.938-1.508,4.272h6.127c1.18,0,2.137-0.956,2.137-2.136     C47,27.884,46.043,26.928,44.863,26.928z"/><path d="M44.863,32.313h-6.748c-0.979,1.617-2.204,3.063-3.645,4.272h10.393c1.18,0,2.137-0.956,2.137-2.136     S46.043,32.313,44.863,32.313z"/><path d="M2.137,25.458H6.53c-0.074-0.644-0.121-1.295-0.121-1.958c0-0.786,0.072-1.556,0.175-2.314H2.137     C0.957,21.187,0,22.143,0,23.323C0,24.502,0.957,25.458,2.137,25.458z"/><path d="M2.137,30.844h5.954c-0.641-1.34-1.116-2.77-1.391-4.271H2.137C0.957,26.573,0,27.528,0,28.708     S0.957,30.844,2.137,30.844z"/><path d="M2.137,20.073h4.619c0.308-1.509,0.829-2.938,1.507-4.272H2.137C0.957,15.8,0,16.756,0,17.937S0.957,20.073,2.137,20.073     z"/><path d="M2.137,14.688h6.748c0.979-1.616,2.204-3.063,3.644-4.272H2.137C0.957,10.416,0,11.372,0,12.551     C0,13.731,0.957,14.688,2.137,14.688z"/><path d="M2.137,36.229h9.998c-1.373-1.227-2.547-2.664-3.467-4.271H2.137C0.957,31.958,0,32.914,0,34.093     C0,35.274,0.957,36.229,2.137,36.229z"/><path d="M2.137,41.615h15.815c0.921,0,1.697-0.584,1.998-1.398c-2.365-0.502-4.541-1.504-6.436-2.874H2.137     C0.957,37.342,0,38.298,0,39.479C0,40.659,0.957,41.615,2.137,41.615z"/><path d="M17.952,42.729H2.137C0.957,42.729,0,43.684,0,44.865C0,46.044,0.957,47,2.137,47h15.815     c1.181,0,2.137-0.957,2.137-2.137S19.133,42.729,17.952,42.729z"/><path d="M23.5,8.546c-8.246,0-14.954,6.708-14.954,14.954S15.254,38.455,23.5,38.455S38.454,31.747,38.454,23.5     S31.746,8.546,23.5,8.546z M23.5,34.182c-5.89,0-10.682-4.791-10.682-10.682c0-5.89,4.792-10.682,10.682-10.682     c5.891,0,10.682,4.792,10.682,10.682C34.182,29.391,29.391,34.182,23.5,34.182z"/><path d="M24.123,22.057v-3.692c2.15,0.04,2.134,2.118,3.396,2.118c0.66,0,1.227-0.445,1.227-1.203     c0-1.904-3.109-2.855-4.623-2.895V15.35c0-0.331-0.254-0.661-0.586-0.661c-0.328,0-0.579,0.33-0.579,0.661v1.035     c-2.428,0.075-4.624,1.438-4.624,4.078c0,2.157,1.744,3.42,4.624,3.943v4.061c-3.229-0.136-1.537-2.817-3.713-2.817     c-0.734,0-1.203,0.449-1.203,1.224c0,1.536,1.633,3.498,4.916,3.578v1.202c0,0.33,0.251,0.66,0.579,0.66     c0.332,0,0.586-0.33,0.586-0.66v-1.202c2.893-0.175,4.835-1.498,4.835-4.101C28.958,23.358,26.688,22.602,24.123,22.057z      M22.958,21.844c-1.457-0.293-2.18-0.854-2.18-1.828c0-0.834,0.855-1.612,2.18-1.652V21.844z M24.123,28.466v-3.846     c1.046,0.231,2.391,0.62,2.391,1.94C26.514,27.842,25.287,28.389,24.123,28.466z"/></g><g transform="matrix(1.5117379041716468 0.17443129156761172 -0.17443129156761172 1.5117379041716468 64.72618192783881 -6.000380259951164)" id="L1_1"><path d="M8.792,7.5c0.334,0.593,2.473,0.89,3.521,0.852c1.048-0.037,3.192-0.508,3.112-1.407   c-0.148-1.667,0.867-3.896,1.068-4.206c0.407-0.63,0.44-1.944-1.282-1.318c-0.403,0.146-1.354,1.135-1.758-0.037   c-0.726-2.106-2.411-1.521-2.782-0.146C10.414,2.19,9.388,2.262,8.217,2.153C6.845,2.024,6.669,2.883,7.125,3.61   C7.369,3.996,8.408,6.82,8.792,7.5z" fill="#030104"/><path d="M12.387,9.797C9.607,9.899,8.802,8.881,8.64,8.938c-4.115,1.43-7.585,5.629-7.585,9.885    c0,5.475,3.124,6.914,11.813,6.914s11.813-1.475,11.813-6.914c0-4.576-4.228-8.958-8.577-10.195    C15.874,8.562,15.462,9.686,12.387,9.797z M12.974,20.715v1.12c0,0.083-0.068,0.151-0.151,0.151h-1.006    c-0.084,0-0.152-0.068-0.152-0.151v-1.029c-0.712-0.044-1.44-0.251-1.89-0.537c-0.057-0.036-0.082-0.104-0.064-0.169l0.326-1.15    c0.013-0.045,0.047-0.082,0.09-0.1c0.047-0.016,0.094-0.013,0.135,0.012c0.318,0.19,0.977,0.511,1.81,0.511    c0.695,0,1.144-0.312,1.144-0.793c0-0.458-0.345-0.761-1.23-1.079c-1.084-0.396-2.194-0.98-2.194-2.31    c0-1.103,0.743-1.935,1.948-2.194v-1.049c0-0.084,0.068-0.152,0.152-0.152h0.992c0.083,0,0.151,0.068,0.151,0.152v0.969    c0.76,0.047,1.266,0.26,1.587,0.42c0.065,0.033,0.098,0.108,0.077,0.179l-0.327,1.112c-0.012,0.043-0.044,0.078-0.085,0.098    c-0.041,0.018-0.087,0.016-0.128-0.004c-0.318-0.16-0.813-0.408-1.578-0.408c-0.626,0-0.998,0.261-0.998,0.696    c0,0.386,0.348,0.649,1.379,1.045c1.435,0.538,2.047,1.253,2.047,2.393C15.008,19.583,14.213,20.462,12.974,20.715z" fill="#030104"/></g><g transform="matrix(0.1388769894838333 0 0 0.1388769894838333 54 142)" id="L1_2"><path d="M126.649,362.44c-12.271-6.108-23.463-14.177-33.136-23.888c-7.169-7.125-13.437-15.101-18.664-23.752     c-2.207-3.828-7.099-5.141-10.927-2.934c-3.828,2.207-5.141,7.099-2.934,10.927c0.048,0.084,0.098,0.166,0.149,0.248     c5.897,9.768,12.968,18.776,21.056,26.824c10.9,10.943,23.514,20.034,37.344,26.912c3.959,1.964,8.76,0.347,10.724-3.612     C132.225,369.205,130.607,364.403,126.649,362.44z"/><path d="M184.017,320.04c-17.673,0-32-14.327-32-32h-16c0.043,23.397,16.934,43.361,40,47.28v16.72h16v-16.72     c26.112-4.572,43.575-29.446,39.003-55.559c-4.003-22.863-23.792-39.587-47.003-39.721c-17.673,0-32-14.327-32-32     s14.327-32,32-32s32,14.327,32,32h16c-0.043-23.397-16.934-43.361-40-47.28v-16.72h-16v16.72     c-26.112,4.572-43.575,29.446-39.003,55.559c4.003,22.863,23.792,39.587,47.003,39.721c17.673,0,32,14.327,32,32     C216.017,305.713,201.69,320.04,184.017,320.04z"/><path d="M333.065,74.056c-3.42-2.814-8.474-2.324-11.288,1.096s-2.324,8.474,1.096,11.288     c8.427,6.949,16.164,14.694,23.104,23.128c2.801,3.418,7.842,3.917,11.26,1.116c3.418-2.801,3.917-7.842,1.116-11.26     C350.758,90.175,342.29,81.679,333.065,74.056z"/><path d="M82.341,146.076c-6.002,5.993-11.462,12.505-16.316,19.459c-24.922,35.533-32.402,80.444-20.344,122.136     c1.211,4.25,5.638,6.715,9.888,5.504c4.25-1.211,6.715-5.638,5.504-9.888c-19.46-67.934,19.835-138.78,87.769-158.241     c44.686-12.801,92.799-0.36,125.679,32.497c3.04,3.035,5.896,6.173,8.568,9.416c40.415,48.975,38.593,120.234-4.272,167.08     c-0.128,0.112-0.24,0.24-0.368,0.36l-0.144,0.144c-0.096,0.096-0.2,0.184-0.288,0.28c-1.088,1.232-2.24,2.472-3.504,3.72     c-30.193,30.16-73.431,43.289-115.296,35.008c-4.334-0.859-8.545,1.958-9.404,6.292c-0.859,4.334,1.958,8.545,6.292,9.404     c47.111,9.333,95.774-5.435,129.752-39.376c1.256-1.248,2.4-2.496,3.568-3.752c0.205-0.182,0.399-0.374,0.584-0.576     c52.58-56.696,50.736-144.871-4.168-199.32C229.687,89.988,138.577,89.922,82.341,146.076z"/><path d="M285.841,146.224 285.841,146.224 285.841,146.224z"/><path d="M248.056,0c-56.789-0.012-110.403,26.199-145.272,71.024c-11.923,9.249-22.634,19.963-31.88,31.888     c-80.146,62.476-94.47,178.095-31.994,258.241s178.095,94.47,258.241,31.994c11.943-9.31,22.691-20.059,32.001-32.003     c11.951-9.33,22.7-20.106,32-32.08c44.837-34.733,71.015-88.308,70.864-145.024C432.039,82.419,349.677,0.022,248.056,0z      M329.433,332.328c-30.167,51.748-85.517,83.612-145.416,83.712c-92.784,0.024-168.019-75.173-168.044-167.956     c-0.014-52.151,24.192-101.35,65.516-133.164c5.806-4.479,11.893-8.581,18.224-12.28c80.371-46.493,183.215-19.03,229.708,61.341     C359.544,216.053,359.548,280.251,329.433,332.328z M375.337,123.944c-2.048-3.915-6.882-5.428-10.797-3.38     c-3.915,2.048-5.429,6.882-3.381,10.797c0.104,0.199,0.217,0.394,0.337,0.584c30.745,53.198,29.959,118.944-2.048,171.392     c30.627-96.803-23.02-200.105-119.822-230.731c-36.109-11.424-74.865-11.417-110.97,0.019     c26.273-16.146,56.522-24.659,87.36-24.584c29.783-0.024,59.035,7.882,84.752,22.904c3.918,2.042,8.75,0.522,10.792-3.396     c1.908-3.659,0.719-8.169-2.744-10.412c-44.949-26.232-98.901-32.214-148.504-16.464C239.52-7.726,342.965,17.25,391.363,96.458     c16.114,26.372,24.644,56.676,24.654,87.582c0.06,30.836-8.44,61.084-24.552,87.376     C407.028,222.174,401.175,168.658,375.337,123.944z"/></g><g transform="matrix(0.1388769894838333 0 0 0.1388769894838333 254 -13)"><path d="M126.649,362.44c-12.271-6.108-23.463-14.177-33.136-23.888c-7.169-7.125-13.437-15.101-18.664-23.752     c-2.207-3.828-7.099-5.141-10.927-2.934c-3.828,2.207-5.141,7.099-2.934,10.927c0.048,0.084,0.098,0.166,0.149,0.248     c5.897,9.768,12.968,18.776,21.056,26.824c10.9,10.943,23.514,20.034,37.344,26.912c3.959,1.964,8.76,0.347,10.724-3.612     C132.225,369.205,130.607,364.403,126.649,362.44z"/><path d="M184.017,320.04c-17.673,0-32-14.327-32-32h-16c0.043,23.397,16.934,43.361,40,47.28v16.72h16v-16.72     c26.112-4.572,43.575-29.446,39.003-55.559c-4.003-22.863-23.792-39.587-47.003-39.721c-17.673,0-32-14.327-32-32     s14.327-32,32-32s32,14.327,32,32h16c-0.043-23.397-16.934-43.361-40-47.28v-16.72h-16v16.72     c-26.112,4.572-43.575,29.446-39.003,55.559c4.003,22.863,23.792,39.587,47.003,39.721c17.673,0,32,14.327,32,32     C216.017,305.713,201.69,320.04,184.017,320.04z"/><path d="M333.065,74.056c-3.42-2.814-8.474-2.324-11.288,1.096s-2.324,8.474,1.096,11.288     c8.427,6.949,16.164,14.694,23.104,23.128c2.801,3.418,7.842,3.917,11.26,1.116c3.418-2.801,3.917-7.842,1.116-11.26     C350.758,90.175,342.29,81.679,333.065,74.056z"/><path d="M82.341,146.076c-6.002,5.993-11.462,12.505-16.316,19.459c-24.922,35.533-32.402,80.444-20.344,122.136     c1.211,4.25,5.638,6.715,9.888,5.504c4.25-1.211,6.715-5.638,5.504-9.888c-19.46-67.934,19.835-138.78,87.769-158.241     c44.686-12.801,92.799-0.36,125.679,32.497c3.04,3.035,5.896,6.173,8.568,9.416c40.415,48.975,38.593,120.234-4.272,167.08     c-0.128,0.112-0.24,0.24-0.368,0.36l-0.144,0.144c-0.096,0.096-0.2,0.184-0.288,0.28c-1.088,1.232-2.24,2.472-3.504,3.72     c-30.193,30.16-73.431,43.289-115.296,35.008c-4.334-0.859-8.545,1.958-9.404,6.292c-0.859,4.334,1.958,8.545,6.292,9.404     c47.111,9.333,95.774-5.435,129.752-39.376c1.256-1.248,2.4-2.496,3.568-3.752c0.205-0.182,0.399-0.374,0.584-0.576     c52.58-56.696,50.736-144.871-4.168-199.32C229.687,89.988,138.577,89.922,82.341,146.076z"/><path d="M285.841,146.224 285.841,146.224 285.841,146.224z"/><path d="M248.056,0c-56.789-0.012-110.403,26.199-145.272,71.024c-11.923,9.249-22.634,19.963-31.88,31.888     c-80.146,62.476-94.47,178.095-31.994,258.241s178.095,94.47,258.241,31.994c11.943-9.31,22.691-20.059,32.001-32.003     c11.951-9.33,22.7-20.106,32-32.08c44.837-34.733,71.015-88.308,70.864-145.024C432.039,82.419,349.677,0.022,248.056,0z      M329.433,332.328c-30.167,51.748-85.517,83.612-145.416,83.712c-92.784,0.024-168.019-75.173-168.044-167.956     c-0.014-52.151,24.192-101.35,65.516-133.164c5.806-4.479,11.893-8.581,18.224-12.28c80.371-46.493,183.215-19.03,229.708,61.341     C359.544,216.053,359.548,280.251,329.433,332.328z M375.337,123.944c-2.048-3.915-6.882-5.428-10.797-3.38     c-3.915,2.048-5.429,6.882-3.381,10.797c0.104,0.199,0.217,0.394,0.337,0.584c30.745,53.198,29.959,118.944-2.048,171.392     c30.627-96.803-23.02-200.105-119.822-230.731c-36.109-11.424-74.865-11.417-110.97,0.019     c26.273-16.146,56.522-24.659,87.36-24.584c29.783-0.024,59.035,7.882,84.752,22.904c3.918,2.042,8.75,0.522,10.792-3.396     c1.908-3.659,0.719-8.169-2.744-10.412c-44.949-26.232-98.901-32.214-148.504-16.464C239.52-7.726,342.965,17.25,391.363,96.458     c16.114,26.372,24.644,56.676,24.654,87.582c0.06,30.836-8.44,61.084-24.552,87.376     C407.028,222.174,401.175,168.658,375.337,123.944z"/></g><g transform="matrix(0.09803825616836548 0 0 0.09803825616836548 156 243.0000018190692)" id="L1_3"><path d="M482.288,437.042c-45.521,0-82.42,36.899-82.42,82.426c0,45.514,36.906,82.414,82.42,82.414    c45.521,0,82.414-36.899,82.414-82.414C564.702,473.947,527.809,437.042,482.288,437.042z M482.288,583.58    c-35.412,0-64.112-28.7-64.112-64.112c0-35.412,28.7-64.118,64.112-64.118c35.406,0,64.118,28.707,64.118,64.118    C546.407,554.88,517.694,583.58,482.288,583.58z"/><path d="M0,262.212h126.044V10.124H0V262.212z M62.385,36.234c18.547,0,33.578,15.05,33.578,33.584    c0,18.541-15.031,33.578-33.578,33.578c-18.541,0-33.578-15.037-33.578-33.578C28.807,51.284,43.838,36.234,62.385,36.234z"/><path d="M465.55,355.825c0,0-3.372,19.934,10.859,24.352c0,0,15.157,2.836,19.039-10.821l5.691-83.454    c0.592-8.363-3.933-14.942-3.933-14.942c-1.683-2.445-3.655-4.878-5.729-7.266c-7.72-3.775-17.192-8.124-28.089-12.567    c1.33,1.733,2.653,3.561,3.901,5.451c0,0,5.489,9.346,4.487,18.447L465.55,355.825z"/><path d="M524.437,397.155c0,0,5.199,0.945,11.092-0.851c1.947-23.406,6.075-69.406,9.983-90.411c0,0,3.183-17.602-16.297-28.618    c0,0-9.806-5.943-26.81-14.01c2.597,2.83,5.048,5.779,7.096,8.729c0,0,4.752,6.794,4.134,15.428l-6.101,87.834    C507.535,375.261,507.39,394.47,524.437,397.155z"/><path d="M573.141,202.493C440.177,81.333,329.933,49.627,329.933,49.627c-24.982-7.273-59.014-7.985-59.014-7.985H157.555V180.29    h50.689c53.499,119.742,135.062,183.224,135.062,183.224c23.999,18.881,54.684,45.256,54.684,45.256    c21.642,19.675,29.501,17.98,29.501,17.98c17.318,0,16.789-21.698,16.789-21.698c0-39.332-62.94-104.478-62.94-104.478    c-11.804-13.644-0.265-29.948-0.265-29.948c19.94-24.913,41.311-34.517,41.311-34.517c8.458-4.714,27.144-0.794,27.144-0.794    c55.863,10.626,97.041,38.683,97.041,38.683c12.85,8.13,11.602,25.688,11.602,25.688c-3.542,21.245-8.521,76.799-8.521,76.799    c-2.54,32.267,15.535,34.278,15.535,34.278c45.439,5.275,46.819-129.428,46.819-129.428    C612,231.754,573.141,202.493,573.141,202.493z"/><path d="M508.014,519.827c-2.672-1.739-5.697-3.057-9.081-3.964c-3.384-0.907-6.813-1.639-10.279-2.193v-18.32    c7.317,0.328,15.22,1.872,23.703,4.62v-16.342c-3.479-1.21-7.279-2.162-11.439-2.855c-4.153-0.681-8.243-1.147-12.258-1.361    v-8.256h-13.127v8.508c-4.449,0.492-8.464,1.374-12.006,2.647c-3.548,1.26-6.561,2.924-9.037,4.985    c-2.477,2.073-4.38,4.512-5.697,7.355c-1.323,2.836-1.985,6.069-1.985,9.699c0,4.456,0.851,8.092,2.565,10.903    c1.702,2.798,3.926,5.061,6.649,6.768c2.723,1.708,5.792,2.987,9.201,3.838c3.416,0.851,6.85,1.525,10.317,2.01v18.094    c-2.798-0.063-5.388-0.214-7.752-0.46c-2.37-0.246-4.626-0.58-6.775-0.989c-2.136-0.416-4.235-0.908-6.277-1.494    c-2.023-0.574-4.115-1.242-6.271-2.017v16.184c3.145,1.431,7.09,2.534,11.854,3.334c4.764,0.807,9.838,1.286,15.226,1.45v8.086    h13.127v-8.502c9.081-0.989,16.083-3.491,21.012-7.506c4.922-4.015,7.386-9.554,7.386-16.6c0-4.405-0.838-8.004-2.515-10.815    C512.86,523.829,510.68,521.56,508.014,519.827z M475.526,511.609c-3.573-0.655-6.239-1.601-8.01-2.811    c-1.752-1.21-2.634-2.975-2.634-5.281c0-2.029,0.769-3.725,2.307-5.073c1.544-1.355,4.33-2.244,8.331-2.685v15.85H475.526z     M488.653,545.376v-15.522c3.466,0.611,6.05,1.506,7.72,2.685c1.683,1.185,2.515,2.93,2.515,5.237    C498.888,541.961,495.479,544.488,488.653,545.376z"/></g><g transform="matrix(2.5 0 0 2.5 206 138)" id="L1_4"><path d="m20.5 13h-17c-.276 0-.5-.224-.5-.5s.224-.5.5-.5h17c.276 0 .5.224.5.5s-.224.5-.5.5z"/><path d="m19.5 24h-15c-.827 0-1.5-.673-1.5-1.5v-5c0-.276.224-.5.5-.5s.5.224.5.5v5c0 .275.224.5.5.5h15c.276 0 .5-.225.5-.5v-5c0-.276.224-.5.5-.5s.5.224.5.5v5c0 .827-.673 1.5-1.5 1.5z"/><path d="m12 24c-.276 0-.5-.224-.5-.5v-11c0-.276.224-.5.5-.5s.5.224.5.5v11c0 .276-.224.5-.5.5z"/><path d="m23.5 18h-7.934c-.523 0-1.016-.278-1.286-.728l-2.709-4.516c-.093-.154-.095-.347-.006-.503s.255-.253.435-.253h8.5c.176 0 .338.092.429.243l3 5c.093.154.095.347.006.503-.089.157-.255.254-.435.254zm-10.617-5 2.254 3.758c.09.149.255.242.429.242h7.05l-2.4-4z"/><path d="m8.434 18h-7.934c-.18 0-.346-.097-.435-.254-.089-.156-.086-.349.006-.503l3-5c.091-.151.253-.243.429-.243h8.5c.18 0 .346.097.435.254.089.156.086.349-.006.503l-2.709 4.514c-.27.451-.763.729-1.286.729zm-7.051-1h7.05c.175 0 .339-.093.43-.243l2.254-3.757h-7.334z"/><path d="m12 11c-3.033 0-5.5-2.468-5.5-5.5s2.467-5.5 5.5-5.5 5.5 2.468 5.5 5.5-2.467 5.5-5.5 5.5zm0-10c-2.481 0-4.5 2.019-4.5 4.5s2.019 4.5 4.5 4.5 4.5-2.019 4.5-4.5-2.019-4.5-4.5-4.5z"/><path d="m12.25 8.5h-1.75c-.276 0-.5-.224-.5-.5s.224-.5.5-.5h1.75c.414 0 .75-.337.75-.75s-.336-.75-.75-.75h-.5c-.965 0-1.75-.785-1.75-1.75s.785-1.75 1.75-1.75h1.75c.276 0 .5.224.5.5s-.224.5-.5.5h-1.75c-.414 0-.75.337-.75.75s.336.75.75.75h.5c.965 0 1.75.785 1.75 1.75s-.785 1.75-1.75 1.75z"/><path d="m12 9.4c-.276 0-.5-.224-.5-.5v-.9c0-.276.224-.5.5-.5s.5.224.5.5v.9c0 .277-.224.5-.5.5z"/><path d="m12 3.5c-.276 0-.5-.224-.5-.5v-.9c0-.276.224-.5.5-.5s.5.224.5.5v.9c0 .276-.224.5-.5.5z"/></g><path d="M374.363,342.635c-25.563,26.889-58.292,41.7-92.16,41.7c-55.509,0-103.572-38.981-126.192-95.329h154.186   c13.37,0,24.21-10.84,24.21-24.21s-10.84-24.21-24.21-24.21H143.708c-0.952-7.915-1.472-15.989-1.472-24.211   c0-9.274,0.653-18.365,1.871-27.237h166.09c13.37,0,24.21-10.84,24.21-24.21s-10.84-24.211-24.21-24.211H157.299   c23.105-54.698,70.4-92.302,124.904-92.302c33.868,0,66.597,14.812,92.16,41.698c9.203,9.685,24.518,10.083,34.224,0.872   c9.693-9.215,10.077-24.539,0.875-34.229C374.671,20.156,329.478,0,282.209,0c-80.712,0-149.705,58.62-176.478,140.724H40.854   c-13.37,0-24.21,10.84-24.21,24.21s10.84,24.21,24.21,24.21h54.503c-0.981,8.934-1.542,18.007-1.542,27.237   c0,8.192,0.428,16.255,1.211,24.211H40.854c-13.37,0-24.21,10.84-24.21,24.21s10.84,24.21,24.21,24.21h63.916   c26.043,83.691,95.733,143.75,177.433,143.75c47.274,0,92.456-20.161,127.247-56.755c9.208-9.693,8.83-25.015-0.869-34.229   C398.894,332.563,383.566,332.948,374.363,342.635z" transform="matrix(0.0915064886212349 0 0 0.0915064886212349 -13.740332197231169 235.18170458078384)" id="L1_5"/><path d="M374.363,342.635c-25.563,26.889-58.292,41.7-92.16,41.7c-55.509,0-103.572-38.981-126.192-95.329h154.186   c13.37,0,24.21-10.84,24.21-24.21s-10.84-24.21-24.21-24.21H143.708c-0.952-7.915-1.472-15.989-1.472-24.211   c0-9.274,0.653-18.365,1.871-27.237h166.09c13.37,0,24.21-10.84,24.21-24.21s-10.84-24.211-24.21-24.211H157.299   c23.105-54.698,70.4-92.302,124.904-92.302c33.868,0,66.597,14.812,92.16,41.698c9.203,9.685,24.518,10.083,34.224,0.872   c9.693-9.215,10.077-24.539,0.875-34.229C374.671,20.156,329.478,0,282.209,0c-80.712,0-149.705,58.62-176.478,140.724H40.854   c-13.37,0-24.21,10.84-24.21,24.21s10.84,24.21,24.21,24.21h54.503c-0.981,8.934-1.542,18.007-1.542,27.237   c0,8.192,0.428,16.255,1.211,24.211H40.854c-13.37,0-24.21,10.84-24.21,24.21s10.84,24.21,24.21,24.21h63.916   c26.043,83.691,95.733,143.75,177.433,143.75c47.274,0,92.456-20.161,127.247-56.755c9.208-9.693,8.83-25.015-0.869-34.229   C398.894,332.563,383.566,332.948,374.363,342.635z" transform="matrix(0.0915064886212349 0 0 0.0915064886212349 177.25966716606592 303.18170458078384)"/><g transform="matrix(0.16242153201383236 0.05684753770901592 -0.05684753770901592 0.16242153201383236 149.42728085316648 127.09670722140011)" id="L1_6"><path d="M71.108,35.306c-0.579-0.609-1.395-0.452-1.895,0.066C51.046,35.96,44.567,61.852,54.06,73.861    c0,0.009-0.005,0.019-0.004,0.027c0.013,0.145,0.09,0.281,0.242,0.318c0.011,0.003,0.022,0.006,0.033,0.008    c0.008,0.002,0.009-0.01,0.017-0.009c3.025,3.62,7.556,5.899,13.759,5.649c0.217-0.009,0.365-0.128,0.525-0.229    c0.192,0.12,0.375,0.252,0.59,0.342c0.793,0.33,1.538-0.48,1.578-1.202c0.151-2.799-1.119-5.771-1.152-8.716    c-0.058-5.059,0.67-10.158,1.265-15.17C71.46,50.268,74.759,39.148,71.108,35.306z M68.366,39.06    c-0.01,0.24,0.006,0.491,0.002,0.735c-4.439,4.478-9.525,8.309-14.069,12.657C56.491,46.012,61.72,41.562,68.366,39.06z     M54.305,66.304c-0.622-1.702-0.948-3.631-1.067-5.718c1.416-1.176,2.859-2.31,4.414-3.328c0.918-0.601,1.932-1.09,2.921-1.608    c-0.103,1.161-0.083,2.343,0.122,3.515c0.132,0.756,0.36,1.473,0.568,2.198c-1.315,0.937-2.543,2.068-3.853,2.966    C56.396,65.025,55.355,65.673,54.305,66.304z M54.765,67.44c1.129-0.611,2.24-1.257,3.332-1.934    c1.181-0.731,2.518-1.488,3.718-2.362c0.308,0.845,0.628,1.685,0.999,2.512c-0.004,0.003-0.008,0.007-0.012,0.01    c-1.415,1.103-2.813,2.233-4.191,3.382c-0.406,0.339-1.204,0.89-2.021,1.534C55.856,69.633,55.274,68.565,54.765,67.44z     M57.743,71.912c0.896-0.687,1.795-1.369,2.692-2.053c1.077-0.82,2.165-1.626,3.259-2.424c0.311,0.515,0.73,1.189,1.161,1.831    c-0.89,0.718-1.695,1.647-2.409,2.355c-0.778,0.772-1.464,1.622-2.186,2.441C59.328,73.422,58.503,72.693,57.743,71.912z     M61.372,74.777c0.617-0.522,1.244-1.033,1.848-1.57c0.755-0.671,1.662-1.298,2.504-1.972c0.025,2.127,0.225,4.194,0.879,5.803    C64.658,76.459,62.928,75.692,61.372,74.777z M66.576,60.816c-0.103,0.958-0.295,2.332-0.477,3.884    c-0.028-0.066-0.056-0.127-0.083-0.194c-1.013-2.485-1.822-5.031-1.942-7.728c-0.147-3.302,1.662-5.31,3.815-7.256    C67.463,53.29,66.979,57.049,66.576,60.816z M68.303,45.748c-0.325-0.062-0.668-0.055-0.999,0.089    c-3.196,1.387-5.317,4.086-6.256,7.217c-1.76,0.783-3.429,2.11-4.922,3.174c-1.014,0.722-2.006,1.493-2.955,2.312    c0.039-1.119,0.176-2.181,0.364-3.212c4.76-4.127,10.401-7.412,14.827-11.872c0.004,0.698,0.024,1.417-0.031,2.041    C68.323,45.581,68.311,45.664,68.303,45.748z"/><path d="M94.857,41.338c-0.139-0.544-0.497-0.795-0.899-0.925c-0.603-1.791-3.334-2.535-4.879-3.33    c-1.147-0.59-2.281-1.205-3.337-1.948c-0.958-0.674-1.382-1.21-2.579-1.359c-0.023-0.003-0.034,0.029-0.057,0.032    c-0.189-0.122-0.397-0.207-0.628-0.178c-5.984,0.746-5.367,16.428-5.574,20.458c-0.029,0.565-0.08,1.263-0.137,2.019    c-0.127,0.375-0.19,0.754-0.109,1.143c0.002,0.011,0.017,0.013,0.019,0.024c-0.579,7.362-1.632,20.511,2.535,25.195    c-0.018,0.536,0.127,1.033,0.655,1.409c3.167,2.251,7.065,3.07,10.591,4.6c1.328,0.576,2.59-0.109,2.739-1.572    C94.645,72.713,98.439,55.373,94.857,41.338z M83.341,37.243c0.719,0.773,1.703,1.434,2.484,1.965    c0.146,0.099,0.305,0.179,0.454,0.274c-1.532,0.791-3.035,1.724-4.501,2.681C82.165,40.522,82.884,38.874,83.341,37.243z     M80.836,50.231c1.479-1.499,3.682-2.679,5.206-3.59c1.442-0.861,4.476-1.616,5.318-3.151c0.259-0.473,0.005-0.95-0.462-1.135    c-1.918-0.76-5.368,2.193-6.8,3.163c-0.974,0.659-2.054,1.442-3.017,2.329c0.126-1.25,0.217-2.505,0.387-3.749    c0.827-0.47,1.662-0.927,2.494-1.388c1.357-0.753,2.782-1.412,4.164-2.134c0.592,0.32,1.189,0.632,1.779,0.944    c0.733,0.387,1.349,0.767,2.009,0.901c-0.067,1.051-0.105,2.102-0.163,3.153c-3.231,0.98-6.254,3.509-8.986,5.412    c-0.494,0.344-1.236,0.786-2.03,1.29C80.782,51.594,80.783,50.911,80.836,50.231z M80.439,58.384    c0.014-1.115,0.114-2.229,0.162-3.344c0.536-0.339,1.02-0.624,1.217-0.763c1.354-0.957,2.743-1.865,4.136-2.763    c1.863-1.2,3.836-2.28,5.672-3.529c-0.063,1.246-0.11,2.493-0.165,3.739c-1.788,0.07-4.49,2.528-5.3,3.125    c-1.794,1.321-3.933,2.744-5.723,4.379C80.444,58.947,80.437,58.666,80.439,58.384z M80.503,68.103    c1.816-1.111,3.59-2.312,5.317-3.504c1.59-1.097,3.938-2.214,4.911-3.964c0.432-0.776-0.407-1.491-1.146-1.146    c-1.817,0.849-3.32,2.417-4.89,3.652c-1.383,1.088-2.8,2.125-4.209,3.175c-0.026-1.627-0.051-3.254-0.044-4.88    c1.799-1.204,3.542-2.524,5.312-3.76c1.363-0.952,2.749-1.872,4.166-2.742c0.478-0.293,0.97-0.562,1.439-0.866    c-0.142,3.374-0.282,6.75-0.423,10.125c-0.911,0.173-1.703,0.944-2.413,1.474c-1.362,1.015-2.707,2.054-4.039,3.109    c-1.136,0.9-2.56,1.905-3.764,3.052C80.646,70.586,80.539,69.347,80.503,68.103z M81.292,77.811    c0.935-0.839,2.058-1.521,2.956-2.056c1.784-1.062,4.599-1.766,5.862-3.448c0.548-0.729-0.355-1.429-1.027-1.336    c-1.093,0.15-2.149,1.02-3.092,1.563c-1.357,0.781-2.69,1.595-3.945,2.533c-0.363,0.271-0.685,0.557-1.008,0.843    c-0.056-0.41-0.113-0.819-0.148-1.204c-0.033-0.351-0.033-0.704-0.062-1.055c0.307-0.191,0.622-0.38,0.899-0.572    c1.476-1.023,2.912-2.101,4.387-3.126c1.29-0.897,2.587-1.784,3.889-2.662c0.27-0.182,0.552-0.356,0.829-0.535    c-0.084,1.895-0.188,3.791-0.287,5.688c-0.092,0.016-0.182-0.003-0.273,0.049c-1.824,1.039-3.225,2.898-4.745,4.336    c-1.328,1.256-2.721,2.436-4.094,3.638C81.457,79.596,81.404,78.702,81.292,77.811z M86.142,78.505    c1.387-1.074,3.044-2.184,4.274-3.541c-0.06,1.052-0.154,2.106-0.223,3.159c-0.183,0.213-0.357,0.438-0.555,0.632    c-1.187,1.161-2.636,1.98-4.024,2.867c-0.251,0.161-0.296,0.465-0.212,0.711c-1.055-0.399-2.097-0.762-3.01-0.994    C83.648,80.402,84.905,79.463,86.142,78.505z M86.165,82.619c1.108-0.439,2.535-1.095,3.847-1.929    c-0.085,1.16-0.145,2.318-0.246,3.479C88.695,83.677,87.434,83.124,86.165,82.619z"/><path d="M165.01,120.643c-6.246-18.738-26.522-26.139-44.527-29.883c0.015-0.011,0.031-0.017,0.045-0.027    c0.37-0.305,0.078-1.025-0.403-0.974c-0.669,0.07-1.334,0.273-1.994,0.532c-0.595-0.115-1.196-0.237-1.784-0.345    c1.566-10.258,0.349-20.76-0.419-31.096c1.126,4.185,1.23,8.64,1.01,12.998c-0.053,1.057,0.647,1.606,1.442,1.709    c2.059,4.689,14.549,7.103,18.373,8.26c0.606,0.184,1.2-0.022,1.644-0.41c0.296,0.061,0.614,0.063,0.949-0.08    c2.169-0.925,4.407-1.703,6.613-2.535c0.47-0.177,1.207-0.411,1.896-0.734c0.805,0.133,1.738-0.34,1.85-1.419    c2.57-25.066-15.742-47.695-34.905-61.955c0.148-0.38-0.04-0.81-0.407-1.041c0.537-1.512,0.857-3.235,1.219-4.312    c0.291-0.869-0.327-1.881-1.192-2.099c-1.328-0.335-2.601-0.822-3.848-1.374c-0.168-0.327-0.535-0.575-0.924-0.485    c-0.022,0.005-0.043,0.019-0.064,0.025c-3.264-1.538-6.405-3.387-9.957-4.045c-2.892-0.535-5.293,0.656-7.242,2.484    c-0.081-0.642-0.608-1.299-1.232-1.415c-0.743-0.138-1.486-0.318-2.229-0.479c-0.101-0.041-0.166-0.138-0.283-0.143    c-0.064-0.003-0.13,0.036-0.194,0.041c-0.916-0.201-1.831-0.385-2.749-0.59c-0.103-0.071-0.239-0.07-0.377-0.084    c-2.508-0.554-5.026-1.047-7.582-1.157c-4.151-0.178-8.266,2.266-11.581,4.454c-0.542,0.358-0.624,0.905-0.452,1.358    c-0.551,3.762-0.572,7.805,0.012,11.626c-23.375,0.448-35.84,16.637-35.291,39.629c0.534,22.37,19.929,38.165,41.355,40.046    c-0.335,0.282-0.567,0.706-0.586,1.278c-0.353,10.894-1.775,21.739-2.628,32.602c-0.152,1.935-0.542,4.69-0.838,7.666    c-3.622-5.087-4.273-10.771-3.686-17.479c0.362-4.132-2.051-6.473-5.107-8.901c-2.432-1.933-5.648-4.729-9.066-5.701    c-0.138-0.69-0.975-1.13-1.63-0.531c-0.068,0.062-0.112,0.149-0.177,0.216c-0.761-0.053-1.525-0.032-2.29,0.168    c-0.255,0.066-0.481,0.156-0.727,0.23c-0.27-0.087-0.567-0.09-0.821,0.162c-0.038,0.038-0.062,0.092-0.099,0.131    c-4.951,1.731-8.349,4.718-14.437,3.977c-0.899-0.11-1.407,0.433-1.589,1.12c-0.26,0.077-0.504,0.235-0.648,0.593    c-11.392,28.351,16.484,51.478,40.85,58.842c0.359,0.107,0.67,0.084,0.957,0.009c-0.113,0.502-0.009,1.04,0.436,1.424    c-0.695-0.6-0.258-0.141-0.268,0.84c-0.01,0.931-0.03,1.859-0.034,2.789c-0.007,1.444-0.128,3.065,0.302,4.465    c0.583,1.9,3.101,3.383,4.709,4.297c2.515,1.429,5.453,2.106,8.273,2.602c1.111,0.195,2.149-0.441,2.275-1.592    c0.257,0.135,0.552,0.21,0.876,0.14c3.252-0.693,6.772-2.191,9.506-4.141c0.631,1.459,0.593,3.232,0.378,5.197    c-0.068,0.618,0.395,1.279,0.904,1.576c2.945,1.721,6.417,2.774,9.819,2.987c0.427,0.027,0.807-0.13,1.112-0.385    c0.204,0.043,0.419,0.052,0.651-0.014c3.892-1.11,6.928-4.191,9.64-7.039c1.392-1.463,2.711-2.989,4.131-4.425    c0.909-0.919,2.153-1.54,2.157-2.969c0-0.049-0.037-0.074-0.042-0.12c9.766-2.103,18.703-5.54,24.956-11.401    C166.828,159.813,170.289,136.476,165.01,120.643z M164.009,133.138c-2.161,1.326-4.285,2.704-6.534,3.914    c-0.003,0.002-0.002,0.004-0.005,0.006c-0.255-1.552-0.613-3.064-1.121-4.514c2.084-1.214,4.199-2.562,6.003-4.095    c0.605-0.516-0.166-1.395-0.813-1.054c-1.994,1.044-3.853,2.566-5.637,4.031c-0.531-1.333-1.129-2.638-1.831-3.89    c2.885-1.659,5.896-3.205,8.014-5.723C163.405,125.439,163.981,129.285,164.009,133.138z M161.575,120.557    c-0.01,0.006-0.02,0-0.029,0.007c-2.134,1.499-4.236,3.045-6.396,4.509c-0.579,0.393-1.197,0.777-1.817,1.169    c-0.629-1.017-1.289-2.016-2.016-2.976c0.698-0.402,1.374-0.861,2.035-1.317c2.238-1.54,4.605-3.291,6.199-5.533    C160.353,117.74,160.989,119.14,161.575,120.557z M156.364,112.042c0.851,0.956,1.604,1.967,2.312,3.004    c-0.032,0.023-0.072,0.012-0.102,0.041c-1.962,1.884-3.909,3.743-6.083,5.386c-0.708,0.535-1.447,1.032-2.187,1.524    c-0.763-0.935-1.552-1.854-2.389-2.737c1.327-1.019,2.657-2.035,3.959-3.086C153.375,114.965,155.207,113.668,156.364,112.042z     M153.549,109.295c0.174,0.151,0.356,0.283,0.528,0.438c0.401,0.361,0.749,0.759,1.126,1.138    c-1.462,0.984-2.706,2.429-3.984,3.591c-1.407,1.278-2.869,2.494-4.325,3.716c-0.775-0.775-1.575-1.531-2.394-2.266    c2.777-2.483,6.129-4.12,9.02-6.562C153.541,109.334,153.533,109.313,153.549,109.295z M148.84,105.713    c1.195,0.789,2.356,1.661,3.498,2.579c-3.265,1.664-6.432,3.897-8.875,6.691c-1.246-1.072-2.514-2.113-3.809-3.094    c1.055-0.665,2.111-1.333,3.136-2.056c1.403-0.991,2.816-1.967,4.244-2.924C147.616,106.521,148.249,106.14,148.84,105.713z     M144.089,102.903c0.904,0.478,1.799,0.979,2.682,1.505c-1.684,1.08-3.282,2.658-4.605,3.681c-1.24,0.959-2.396,1.982-3.549,3.009    c-1.2-0.88-2.407-1.729-3.607-2.533c0.889-0.422,1.745-0.936,2.584-1.392c2.138-1.162,4.586-2.271,6.354-3.972    C144.038,103.115,144.054,103.006,144.089,102.903z M137.955,100.006c1.587,0.651,3.146,1.363,4.684,2.123    c-1.93,0.765-3.679,2.081-5.423,3.168c-1.226,0.764-2.487,1.476-3.72,2.227c-1.028-0.698-2.154-1.508-3.39-2.424    c0.813-0.481,1.63-0.958,2.452-1.42c1.728-0.97,3.861-1.752,5.203-3.242C137.881,100.305,137.937,100.154,137.955,100.006z     M130.887,97.385c1.876,0.632,3.732,1.301,5.565,2.016c-1.714,0.572-3.314,1.758-4.826,2.683    c-1.011,0.619-1.992,1.269-2.946,1.956c-1.152-0.86-2.345-1.75-3.596-2.661c0.422-0.254,0.846-0.502,1.266-0.762    c1.498-0.925,3.261-1.724,4.449-3.034C130.854,97.522,130.863,97.452,130.887,97.385z M129.466,96.914    c-1.392,0.577-2.626,1.588-3.861,2.427c-0.579,0.395-1.183,0.747-1.77,1.126c-1.255-0.896-2.542-1.785-3.847-2.628    c1.346-0.701,2.907-1.549,3.911-2.718C125.765,95.71,127.621,96.305,129.466,96.914z M116.08,93.253    c0.253-0.154,0.527-0.275,0.791-0.413c1.723,0.587,3.45,1.145,5.176,1.694c-0.903,0.607-1.796,1.228-2.727,1.796    c-0.299,0.181-0.593,0.368-0.891,0.55c-1.424-0.866-2.854-1.683-4.273-2.355C114.795,94.097,115.423,93.654,116.08,93.253z     M109.207,52.836c0.959-0.607,1.971-1.191,2.94-1.825c0.332,0.483,0.684,0.943,1.007,1.444c0.282,0.438,0.515,0.895,0.758,1.347    c-1.801,0.767-3.484,2.082-5.074,3.112c-0.785,0.509-1.586,0.99-2.377,1.489c0.214-1.454,0.442-2.904,0.693-4.355    C107.832,53.634,108.535,53.262,109.207,52.836z M107.511,52.048c0.327-1.79,0.663-3.581,1.031-5.395    c0.957,0.886,1.792,1.854,2.573,2.875c-0.941,0.591-1.835,1.282-2.728,1.906C108.095,51.639,107.804,51.844,107.511,52.048z     M105.811,85.011c1.457-0.756,2.921-1.5,4.327-2.356c1.116-0.678,2.339-1.391,3.47-2.194c-0.01,1.286-0.061,2.572-0.137,3.856    c-1.131,0.616-2.197,1.413-3.273,2.065c-1.44,0.872-2.969,1.605-4.498,2.312C105.794,87.548,105.831,86.305,105.811,85.011z     M105.507,79.046c1.115-0.933,2.28-1.808,3.495-2.621c1.418-0.949,3.046-1.749,4.484-2.741c0.059,1.51,0.099,3.021,0.119,4.53    c-1.445,0.979-2.781,2.2-4.198,3.189c-1.165,0.813-2.41,1.497-3.631,2.22C105.718,82.058,105.618,80.486,105.507,79.046z     M109.609,58.235c1.269-0.738,2.635-1.432,3.951-2.184c-0.138,1.159-0.215,2.32-0.278,3.48c-2.774,1.121-5.492,3.181-7.596,5.497    c0.16-1.619,0.318-3.238,0.534-4.835C107.361,59.559,108.483,58.891,109.609,58.235z M109.369,63.582    c1.205-0.851,2.532-1.474,3.84-2.13c-0.047,1.783-0.021,3.569,0.025,5.355c-1.572,1.03-2.97,2.322-4.485,3.435    c-1.117,0.82-2.314,1.499-3.542,2.118c0.057-1.764,0.133-3.516,0.271-5.232C106.655,65.834,107.892,64.624,109.369,63.582z     M113.279,68.523c0.036,1.06,0.084,2.119,0.128,3.179c-2.049,1.049-3.958,2.625-5.76,3.973c-0.794,0.594-1.532,1.238-2.255,1.9    c-0.14-1.746-0.259-3.199-0.248-3.986C108.072,72.396,110.958,70.619,113.279,68.523z M105.534,90.036    c1.59-0.627,3.142-1.322,4.664-2.106c0.978-0.504,2.06-0.986,3.084-1.546c-0.041,0.426-0.1,0.851-0.142,1.276    c-2.463,1.117-4.714,2.971-6.74,4.661c-0.493-0.01-0.984-0.008-1.461,0.05C105.217,91.75,105.395,90.929,105.534,90.036z     M110.719,90.915c0.73-0.463,1.498-0.854,2.265-1.244c0.08,0.756,0.602,1.308,1.232,1.547c0.053,0.368,0.251,0.7,0.668,0.907    c-0.771,0.554-1.513,1.148-2.217,1.739c-1.473-0.607-2.929-1.114-4.325-1.355C109.13,91.97,109.914,91.424,110.719,90.915z     M146.565,74.845c-0.709,0.267-1.397,0.642-1.908,0.859c-1.121,0.477-2.231,0.986-3.345,1.488c0.646-1.1,2.124-2.162,2.777-2.7    c0.638-0.526,1.533-1.024,2.274-1.619C146.419,73.54,146.532,74.159,146.565,74.845z M146.124,70.529    c-0.625,0.217-1.101,0.706-1.667,1.159c-1.154,0.922-2.253,1.89-3.235,2.995c-0.822,0.926-1.505,2.023-1.345,3.147    c-0.098,0.047-0.2,0.085-0.298,0.133c0.386-1.812,0.585-3.658,0.641-5.521c1.101-0.449,2.355-1.494,2.89-1.84    c0.947-0.613,1.893-1.23,2.831-1.857C146.03,69.317,146.05,69.944,146.124,70.529z M145.445,66.301    c-1.031,0.706-2.043,1.706-2.61,2.135c-0.851,0.643-1.703,1.284-2.564,1.913c-0.018,0.014-0.035,0.029-0.054,0.042    c-0.028-1.042-0.086-2.087-0.196-3.136c0.245-0.236,0.492-0.469,0.739-0.709c1.265-1.228,2.738-2.16,4.072-3.266    C145.078,64.254,145.244,65.292,145.445,66.301z M144.363,61.529c-1.563,0.496-2.877,1.969-3.984,3.099    c-0.206,0.21-0.386,0.435-0.584,0.65c-0.189-1.223-0.413-2.447-0.71-3.669c1.648-0.7,3.229-1.713,4.374-3.024    C143.789,59.544,144.078,60.535,144.363,61.529z M142.84,56.9c-1.497,0.966-2.712,2.203-4.18,3.166    c-0.367-1.316-0.771-2.629-1.25-3.931c1.169-1.175,2.699-2.164,3.84-3.135C141.831,54.264,142.34,55.579,142.84,56.9z     M140.564,51.605c-1.252,0.582-2.643,1.624-3.781,2.885c-0.354-0.871-0.713-1.741-1.112-2.6c1.232-1.027,2.483-2.113,3.385-3.351    C139.606,49.529,140.063,50.583,140.564,51.605z M138.311,47.212c-0.029,0.014-0.062-0.001-0.092,0.019    c-1.203,0.808-2.248,1.98-3.241,3.159c-0.6-1.202-1.236-2.391-1.921-3.559c0.02-0.047,0.067-0.061,0.077-0.118    c0.283-1.646,1.413-2.641,2.66-3.533C136.68,44.498,137.511,45.845,138.311,47.212z M134.601,41.459    c-1.221,0.906-2.21,2.13-2.632,3.538c-0.807-1.277-1.644-2.539-2.542-3.758c1.115-0.758,2.198-1.632,3.142-2.582    C133.272,39.579,133.936,40.519,134.601,41.459z M129.674,34.992c0.651,0.789,1.261,1.592,1.887,2.389    c-1,0.91-1.999,1.826-2.984,2.76c-0.633-0.822-1.237-1.667-1.907-2.455C127.587,36.683,128.573,35.837,129.674,34.992z     M128.57,33.703c-1.104,0.79-2.006,1.844-2.792,2.983c-1.159-1.306-2.354-2.574-3.603-3.766c1.24-0.782,2.455-1.668,3.453-2.65    C126.638,31.411,127.602,32.557,128.57,33.703z M124.671,29.2c-1.284,0.693-2.436,1.707-3.549,2.718    c-0.974-0.885-1.963-1.742-2.979-2.548c1.431-0.849,2.905-1.782,3.993-3.003C123.004,27.316,123.829,28.257,124.671,29.2z     M121.106,25.238c-1.449,0.971-2.822,2.093-4.222,3.144c-1.189-0.89-2.396-1.741-3.63-2.51c1.89-1.003,3.846-1.915,5.555-3.131    C119.583,23.579,120.346,24.409,121.106,25.238z M115.507,19.149c0.726,0.794,1.445,1.574,2.164,2.355    c-2.098,0.779-4.117,2.048-5.952,3.417c-1.31-0.751-2.634-1.445-3.975-2.044c0.94-0.3,1.895-0.853,2.626-1.206    c1.265-0.611,2.523-1.232,3.779-1.862C114.592,19.587,115.067,19.391,115.507,19.149z M112.663,16.321    c0.056-0.035,0.099-0.094,0.152-0.134c0.417,0.464,0.831,0.914,1.247,1.372c-1.198,0.575-2.405,1.451-3.329,1.97    c-1.001,0.563-2.022,1.096-3.003,1.696c-0.305,0.187-0.682,0.352-0.939,0.605c-0.113,0.117-0.238,0.218-0.376,0.303    c-0.019,0.008-0.001,0.022-0.017,0.031c-0.056,0.004-0.11,0.036-0.166,0.062c-1.124-0.447-2.251-0.869-3.386-1.198    c0.024-0.211,0.022-0.423,0.043-0.634c2.335-2.145,5.512-2.914,8.518-3.982C111.792,16.579,112.236,16.585,112.663,16.321z     M111.082,11.454c-0.407,1.039-0.738,2.11-0.746,3.015c-1.419,0.562-2.81,1.248-4.078,1.879c-1.151,0.572-2.261,1.273-3.236,2.115    c0.102-1.361,0.229-2.72,0.278-4.084C105.759,13.161,108.545,12.499,111.082,11.454z M107.5,8.21    c0.883,0.417,1.8,0.76,2.708,1.123c-1.229,0.565-2.438,1.186-3.618,1.692c-1.068,0.459-2.192,0.916-3.247,1.479    c0.014-0.753,0.052-1.502,0.052-2.258c0-0.157-0.035-0.32-0.083-0.481c0.974-0.362,1.957-0.694,2.923-1.067    C106.648,8.539,107.075,8.371,107.5,8.21z M105.49,7.232c-1.041,0.488-2.09,0.959-3.141,1.426c-0.081-0.032-0.152-0.085-0.24-0.1    c-0.787-0.129-1.566-0.21-2.35-0.322c0.086-0.033,0.172-0.068,0.258-0.101c1.201-0.455,2.986-0.79,4.234-1.505    C104.667,6.834,105.078,7.029,105.49,7.232z M101.359,5.346c-0.935,0.445-1.842,0.959-2.522,1.263    c-0.868,0.387-1.775,0.759-2.602,1.233c-1.4-0.109-2.8-0.195-4.212-0.127C95.036,4.733,97.736,4.061,101.359,5.346z M87.151,5.041    c0.53,0.129,1.067,0.263,1.594,0.381c-0.116,0.682-0.273,1.336-0.466,1.99c-1.851,0.326-3.725,1.85-5.165,2.99    c-0.97,0.768-1.871,1.621-2.707,2.533c-0.401-1.131-0.915-2.206-1.488-3.006c0.304-0.146,0.601-0.319,0.881-0.475    c1.305-0.73,2.584-1.496,3.862-2.272C84.829,6.473,85.994,5.763,87.151,5.041z M80.896,14.883    c1.075-1.042,2.163-2.058,3.397-2.954c1.014-0.736,2.234-1.277,3.337-1.934c0.085,0.304,0.262,0.576,0.517,0.783    c-0.085,0.873-0.22,1.739-0.349,2.605c-1.09,0.609-2.073,1.48-3.037,2.235c-0.802,0.629-1.585,1.299-2.341,1.996    c-0.569,0.022-1.109,0.081-1.583,0.216C81.115,16.941,81.062,15.917,80.896,14.883z M84.353,4.373    c-1.083,0.741-2.169,1.479-3.254,2.217c-0.455,0.31-2.081,1.272-3.147,2.237c-0.555-0.507-1.163-0.963-1.837-1.355    c1.139-0.644,2.296-1.254,3.5-1.807c1.186-0.545,2.466-1.001,3.692-1.541C83.657,4.2,84.002,4.29,84.353,4.373z M78.667,3.393    c0.345,0.021,0.692,0.085,1.037,0.123c-0.343,0.179-0.694,0.363-1.034,0.532c-1.463,0.731-2.838,1.608-4.142,2.585    c-1.422-0.618-2.951-1.093-4.404-1.522C72.832,3.938,75.502,3.198,78.667,3.393z M68.128,151.243    c-1.048-0.709-2.032-1.497-2.995-2.311c0.776-0.764,1.56-1.541,2.334-2.313C67.553,148.271,67.723,149.864,68.128,151.243z     M64.895,141.422c0.718,0.81,1.51,1.544,2.42,2.131c-0.468,0.51-0.896,1.064-1.325,1.558c-0.744,0.854-1.565,1.722-2.102,2.709    c-0.798-0.733-1.596-1.469-2.341-2.26c0.604-1.005,1.258-1.975,2.026-2.89C63.958,142.21,64.425,141.813,64.895,141.422z     M63.547,139.654c-0.392,0.469-0.756,0.955-1.069,1.379c-0.782,1.06-1.451,2.181-2.054,3.337c-0.787-0.9-1.544-1.831-2.266-2.793    c1.253-1.572,2.635-2.98,4.044-4.362C62.583,138.069,63.046,138.877,63.547,139.654z M61.393,134.995    c-0.531,0.529-0.999,1.149-1.45,1.677c-0.989,1.157-1.859,2.415-2.703,3.686c-0.065-0.094-0.14-0.178-0.204-0.271    c-0.432-0.625-1.292-2.071-2.202-3.824c0.704-1.222,1.852-2.357,2.656-3.168c0.764-0.771,1.904-1.575,2.906-2.455    c0.179,1.111,0.371,2.217,0.663,3.354C61.146,134.332,61.288,134.659,61.393,134.995z M57.75,115.839    c0.897,0.854,1.706,1.744,2.317,2.647c1.026,1.518,0.081,5.15-0.016,6.819c-0.042,0.729,0.051,1.407,0.075,2.108    c-0.691,0.477-1.274,1.169-1.854,1.733c-1.147,1.115-2.26,2.264-3.288,3.491c-0.372,0.445-0.794,0.979-1.173,1.55    c-0.672-1.441-1.3-2.955-1.722-4.349c0.858-0.962,1.701-1.942,2.54-2.915c1.132-1.311,2.284-2.608,3.521-3.821    c0.603-0.592,1.902-1.659,0.98-2.58c-1.774-1.774-5.231,3.82-6.041,4.861c-0.514,0.66-1,1.341-1.497,2.015    c-0.065-0.826-0.027-1.565,0.291-2.042c0.059-0.089,0.035-0.217-0.037-0.289c-0.229-0.231-0.458-0.461-0.687-0.692    c-0.051-0.052-0.126-0.07-0.185-0.112c-0.049-0.234-0.168-0.457-0.332-0.666c1.068-1.268,2.11-2.562,3.188-3.812    c0.807-0.937,1.655-1.82,2.56-2.66C56.912,116.642,57.428,116.35,57.75,115.839z M54.172,112.968    c0.648,0.439,1.286,0.917,1.908,1.413c-1.491,0.763-2.778,2.9-3.66,3.995c-1.103,1.369-2.173,2.789-3.204,4.233    c-0.465-0.237-0.944-0.448-1.433-0.644c0.136-0.191,0.165-0.451-0.118-0.493c-0.259-0.038-0.626,0.23-0.597,0.212l0,0    c0.016-0.01,0.074-0.052,0.201-0.151c0.258-0.203,0.39-0.76,0.556-1.042c0.622-1.06,1.382-2.004,2.175-2.939    C51.207,116.131,53.081,114.624,54.172,112.968z M46.266,114.526c0.51-1.537,1.213-2.914,1.946-4.274    c0.824,0.1,1.706,0.316,2.767,0.824c0.353,0.169,0.735,0.413,1.102,0.616c-0.736,0.85-1.419,1.811-2.081,2.626    c-1.069,1.316-2.126,2.651-3.059,4.069c-0.544,0.828-1.049,2.062-0.843,2.895c-0.263-0.111-0.53-0.216-0.786-0.341    c-0.32-0.156-0.626-0.342-0.941-0.507C45.054,118.484,45.616,116.489,46.266,114.526z M43.28,111.508    c0.862-0.461,1.652-0.794,2.449-1.036c-0.226,0.638-0.437,1.27-0.641,1.863c-0.827,2.406-1.455,4.919-1.975,7.422    c-1.098-0.621-2.185-1.263-3.264-1.911c0.776-1.482,1.531-2.976,2.294-4.466C42.479,112.722,42.887,112.12,43.28,111.508z     M40.575,112.888c-0.617,1.492-1.171,2.979-1.72,4.405c-1.608-0.946-3.242-1.881-4.941-2.684    C36.188,114.462,38.362,113.91,40.575,112.888z M85.395,182.158c0.181-1.735,0.363-3.469,0.682-5.188    c1.043,0.478,2.102,0.903,3.165,1.326C87.887,179.476,86.746,181.074,85.395,182.158z M86.368,183.33    c0.965-0.63,1.829-1.338,2.678-2.12c0.755-0.696,1.593-1.327,2.336-2.037c0.364,0.15,0.73,0.289,1.092,0.447    c0.175,0.076,0.304,0.171,0.462,0.254C90.845,181.191,88.595,182.249,86.368,183.33z M116.549,181.047    c-2.311,2.564-4.659,5.004-7.546,6.814c0.301-1.292,0.537-2.687,0.662-4.064c2.349-1.342,4.395-3.278,6.455-5.071    c0.077-0.066,0.059-0.16,0.106-0.237c0.934-0.139,1.878-0.226,2.804-0.381C118.009,179.205,117.113,180.422,116.549,181.047z     M133.73,170.976c-8.049,2.91-16.659,3.977-24.819,6.598c-0.803-0.812-2.24-0.639-2.665,0.622    c-0.669,1.979-0.729,4.125-0.845,6.276c-0.146,0.169-0.146,0.378-0.031,0.558c-0.066,1.08-0.155,2.159-0.368,3.219    c-1.919-0.297-3.829-0.929-5.552-1.799c0.207-3.205-0.209-6.348-2.871-8.521c-2.865-2.339-7.322-2.803-10.788-3.889    c-0.911-0.924-2.701-0.938-3.018,0.675c-0.597,3.039-1.039,6.105-1.256,9.193c-1.807-0.412-3.582-0.917-5.261-1.759    c-0.806-0.405-2.855-1.434-3.136-2.316c-0.203-0.64-0.114-1.47-0.129-2.133c-0.044-1.976,0.746-6.614-1.716-7.487    c-0.276-0.098-0.536-0.081-0.782-0.021c0.22-0.875-0.105-1.9-1.215-2.236c-25.075-7.579-43.139-25.818-40.134-52.676    c3.274,2.06,6.501,4.189,9.804,6.206c2.592,1.581,6.259,4.277,9.561,4.519c-0.824,4.038,2.044,9.501,3.572,12.837    c3.538,7.726,11.018,14.38,18.525,18.086c2.104,1.039,3.956-2.109,1.844-3.153c-0.128-0.063-0.239-0.15-0.367-0.216    c0.341-2.563-0.345-5.219-0.434-7.818c-0.197-5.806,0.344-11.661,0.798-17.442c0.777-9.901,2.495-19.95,2.25-29.898    c-0.015-0.59-0.259-1.016-0.606-1.298c0.37-0.334,0.408-1.034-0.105-1.306c-16.639-8.816-33.487-9.73-39.115-31.255    c-6.038-23.094,7.694-43.682,31.866-43.658c1.827,0.002,2.14-2.278,0.993-3.137c0.524-3.065,0.771-6.205,1.158-9.302    c2.322,0.7,4.774,1.45,6.585,2.955c2.622,2.178,0.841,5.633,2.671,7.973c0.307,0.392,0.852,0.44,1.311,0.289    c0.122,0.212,0.317,0.378,0.512,0.545c-0.325,0.56,0.329,1.18,0.878,0.724c0.047-0.039,0.097-0.075,0.144-0.114    c2.266,0.905,6.067,0.653,7.651,0.692c0.953,0.023,1.631-0.783,1.68-1.681c0.162-2.937,0.894-5.78,1.238-8.689    c2.786-0.23,5.556,0.127,8.311,0.58c-0.021,3.472-0.1,6.93-0.608,10.378c-0.184,1.242,0.796,2.061,1.754,2.174    c0.052,0.018,0.083,0.054,0.14,0.069c16.273,4.339,28.205,20.647,33.651,35.78c1.468,4.079,1.988,8.385,1.996,12.695    c0.011,6.439-1.114,4.912-5.548,3.391c-3.179-1.091-7.124-3.932-10.686-4.341c0-0.007,0.006-0.011,0.006-0.019    c0.49-6.923-0.335-13.428-3.446-19.682c-1.429-2.874-3.588-5.781-6.104-7.785c-0.832-0.662-1.416-0.783-2.006-0.829    c-0.148-0.693-0.777-1.264-1.556-1.007c-7.142,2.357-5.74,23.39-5.922,28.881c-0.046,1.414-0.71,20.318,1.555,22.221    c-0.059,0.497,0.116,1.012,0.623,1.238c7.137,3.179,14.829,6.945,22.09,11.429c-0.518,0.492,0.205,1.431,0.808,1.008    c0.133-0.094,0.272-0.172,0.406-0.264c9.232,5.849,17.618,12.935,23.144,21.558c-0.109,0.107-0.236,0.201-0.339,0.312    c-0.522,0.571,0.245,1.28,0.827,0.827c0.054-0.042,0.117-0.073,0.173-0.114c0.124,0.204,0.268,0.397,0.388,0.604    C161.511,147.874,150.355,164.966,133.73,170.976z M155.482,156.634c1.085-2.499,1.813-5.295,2.194-8.369    c0.985,0.072,2.196-0.084,3.311-0.41C159.596,151.049,157.792,154.046,155.482,156.634z M161.744,145.988    c-1.295,0.295-2.643,0.712-3.917,1.159c0.103-1.124,0.161-2.283,0.163-3.487c2.004-0.62,4.122-1.386,5.348-3.134    C162.965,142.393,162.399,144.208,161.744,145.988z M163.578,139.115c-0.216-0.153-0.517-0.183-0.77,0.057    c-1.523,1.436-2.974,2.328-4.885,3.065c-0.042-1.324-0.087-2.65-0.255-4.072c-0.003-0.028-0.011-0.053-0.014-0.081    c0.127,0.034,0.265,0.046,0.411-0.021c1.969-0.914,4.061-1.832,5.954-2.997C163.957,136.423,163.791,137.772,163.578,139.115z"/><path d="M94.994,104.509c-0.279-0.319-0.59-0.387-0.89-0.354c-1.324-0.949-2.68-1.85-4.076-2.691    c-1.342-0.809-2.819-1.782-4.349-2.291c-0.051-2.312-3.658-2.297-3.671,0.054c-0.033,6.365-0.295,12.764-0.578,19.168    c-0.008,0.005-0.016,0.011-0.024,0.015c-0.566,0.303-0.419,0.909-0.03,1.216c-0.564,12.62-1.178,25.27-0.325,37.781    c0.122,1.788,2.512,1.796,2.797,0.131c0.038-0.019,0.079-0.04,0.118-0.059c-0.322,0.477-0.385,0.976-0.135,1.529    c0.858,1.903,3.005,2.781,4.859,3.566c2.035,0.861,4.145,1.607,6.309,2.073c1.212,0.261,2.241-0.537,2.317-1.767    c0.07-1.108,0.985-3.803,0.185-5.031c-0.1-1.163-0.092-2.323-0.14-3.485c0.062-0.251,0.061-0.488-0.03-0.739    c-0.27-8.322,0.562-16.622,1.15-24.954C98.999,121.332,100.212,110.521,94.994,104.509z M89.692,107.381    c-0.612,0.912-0.97,2.388-1.171,4.138c-0.13,0.019-0.26,0.079-0.372,0.224c-0.963,1.243-1.658,2.612-2.736,3.778    c0.041-1.656,0.062-3.309,0.103-4.966c1.427-1.025,2.861-2.043,4.148-3.196C89.675,107.366,89.683,107.373,89.692,107.381z     M85.266,122.727c0.042-1.633,0.058-3.26,0.101-4.892c1.149-0.836,2.208-1.823,2.95-2.96c-0.029,1.712,0.023,3.515,0.117,5.259    C87.347,120.907,86.285,121.783,85.266,122.727z M88.58,122.487c0.134,1.895,0.285,3.607,0.379,4.874    c-1.317,1.321-2.535,2.676-3.869,3.913c0.065-1.976,0.066-3.943,0.122-5.918C86.368,124.433,87.549,123.511,88.58,122.487z     M84.743,141.524c1.168-0.877,2.319-1.819,3.364-2.833c-0.168,2.023-0.284,4.135-0.243,6.162c-1.06,0.974-2.069,2.066-3.045,2.899    c-0.114,0.098-0.22,0.203-0.332,0.303C84.612,145.885,84.643,143.699,84.743,141.524z M84.833,139.239    c0.081-1.924,0.118-3.853,0.186-5.778c1.465-0.978,2.847-2.177,3.984-3.52c-0.104,1.452-0.383,3.593-0.646,6.085    C87.138,137.037,85.971,138.117,84.833,139.239z M88.321,106.276c-0.951,0.63-1.879,1.332-2.76,2.121    c0.032-1.518,0.085-3.039,0.094-4.553C86.467,104.756,87.437,105.563,88.321,106.276z M83.974,156.389    c0.158-2.07,0.255-4.156,0.384-6.234c0.422-0.291,0.847-0.578,1.255-0.899c0.693-0.543,1.555-1.141,2.411-1.772    c0.188,1.79,0.515,3.457,1.134,4.775c-0.509,0.494-1.011,0.997-1.541,1.469C86.491,154.733,85.247,155.583,83.974,156.389z     M88.425,158.258c-0.041,0.046-0.043,0.105-0.075,0.156c-0.492-0.253-0.994-0.486-1.476-0.755c-0.35-0.195-0.784-0.379-1.11-0.583    c-0.33-0.207-0.467-0.17-0.541-0.107c0.015-0.027,0.03-0.086,0.044-0.126c1.664-0.868,3.347-1.932,4.771-3.171    c0.461,0.573,0.984,1.066,1.633,1.385C90.217,156.304,88.826,157.811,88.425,158.258z M93.856,160.549    c-1.298-0.372-2.57-0.825-3.81-1.338c1.093-0.793,2.131-1.673,3.181-2.517c0.17-0.138,0.424-0.312,0.699-0.512    c0.111,0.858,0.227,1.716,0.394,2.567C94.097,159.297,93.95,159.922,93.856,160.549z M94.352,134.826    c-0.426,5.581-1.013,11.254-0.798,16.864c-1.847-1.312-2.605-3.814-2.804-6.771c0.205-0.272,0.452-0.534,0.592-0.822    c0.275-0.565-0.121-1.071-0.647-1.083c0.03-5.818,1.656-12.709,1.576-15.976c-0.042-1.683-0.551-13.674-0.467-18.233    c0.539,0.3,1.087,0.56,1.643,0.695C94.636,118.017,95.033,125.895,94.352,134.826z"/><path d="M107.026,105.062c-0.084-0.037-0.15,0.007-0.232-0.014c-0.893-0.276-1.907,0.035-2.119,1.223    c-0.761,4.267-1.239,8.592-1.537,12.944c-0.351,0.27-0.703,0.54-1.056,0.807c-0.491,0.369-0.062,1.183,0.495,0.848    c0.166-0.1,0.32-0.217,0.486-0.319c-0.189,3.205-0.306,6.422-0.316,9.648c-0.008,0.005-0.017,0.011-0.024,0.016    c-0.419,0.262-0.289,0.755,0.023,0.964c0.014,10.396,0.809,20.843,1.664,31.021c0.103,1.229,1.358,1.552,2.115,1.02    c0.265,0.397,0.684,0.675,1.28,0.618C141.303,160.685,130.01,115.214,107.026,105.062z M108.022,108.575    c1.557,1.142,3.009,2.46,4.406,3.848c-1.406,0.777-2.716,1.814-3.97,2.731c-0.429,0.313-0.844,0.646-1.269,0.968    C107.377,113.608,107.634,111.092,108.022,108.575z M109.245,116.498c1.438-0.958,2.977-1.816,4.432-2.771    c0.412,0.442,0.854,0.85,1.25,1.309c-0.802,0.586-1.326,1.465-1.748,2.436c-1.513,1.084-2.873,2.422-4.313,3.593    c-0.601,0.486-1.3,0.959-1.998,1.441c0.039-1.533,0.144-3.066,0.233-4.601C107.808,117.427,108.533,116.973,109.245,116.498z     M106.836,124.482c0.872-0.606,1.708-1.294,2.463-1.843c0.998-0.724,2.067-1.469,3.054-2.293c-0.176,1.08-0.296,2.184-0.341,3.254    c-1.453,0.785-2.697,2.175-4.02,3.142c-0.384,0.279-0.796,0.514-1.188,0.781C106.804,126.51,106.824,125.496,106.836,124.482z     M106.809,129.097c0.628-0.384,1.276-0.735,1.893-1.141c1.025-0.674,2.286-1.463,3.252-2.413c-0.012,0.632-0.021,1.234-0.04,1.751    c-0.041,1.061,0.001,2.132,0.016,3.2c-0.692,0.729-1.386,1.46-2.136,2.137c-0.913,0.825-1.891,1.555-2.886,2.264    C106.858,132.963,106.827,131.03,106.809,129.097z M106.952,136.438c1.723-1.01,3.479-2.242,4.993-3.667    c0.07,1.797,0.186,3.6,0.301,5.403c-0.431,0.309-0.851,0.629-1.299,0.915c-1.304,0.831-2.617,1.635-3.85,2.567    C107.046,139.916,107,138.177,106.952,136.438z M107.416,142.853c1.524-1.007,3.284-1.879,4.941-2.87    c0.083,1.365,0.157,2.731,0.201,4.095c-0.786,1.018-1.556,2.051-2.33,3.07c-0.705,0.928-1.866,2.111-2.044,3.329    c-0.058,0.396,0.494,0.573,0.612,0.17c0.133-0.453,0.81-0.918,1.147-1.24c0.736-0.704,1.404-1.531,2.067-2.306    c0.198-0.23,0.375-0.472,0.57-0.702c0.001,0.633,0.038,1.271,0.018,1.901c-0.73,0.81-1.469,1.616-2.299,2.339    c-0.967,0.844-1.985,1.703-3.004,2.495c0.011-3.415-0.069-6.826-0.166-10.234C107.225,142.901,107.322,142.915,107.416,142.853z     M112.285,153.759c-0.054,0.045-0.113,0.102-0.163,0.142c-1.077,0.87-2.139,1.763-3.196,2.657c-0.446,0.379-0.89,0.757-1.339,1.13    c-0.126,0.104-0.245,0.216-0.357,0.335c0.039-1.184,0.036-2.364,0.049-3.546c0.042-0.014,0.075,0.008,0.119-0.019    c1.25-0.748,2.438-1.503,3.6-2.416c0.447-0.351,0.939-0.725,1.439-1.123c-0.057,0.637-0.099,1.274-0.188,1.907    C112.206,153.119,112.22,153.446,112.285,153.759z M107.37,160.618c-0.085,0.021-0.144,0.074-0.22,0.106    c0.023-0.425,0.02-0.849,0.037-1.273c0.837-0.001,2.2-1.032,2.513-1.252c1.131-0.797,2.207-1.675,3.309-2.512    c0.235-0.18,0.536-0.367,0.843-0.562c1.099,0.415,2.176,0.744,3.288,0.98C114.567,158.014,111.392,159.59,107.37,160.618z     M120.079,153.465c-0.205-0.245-0.471-0.439-0.854-0.495c-4.021-0.568-3.261,0.055-3.179-4.019    c0.076-3.734-0.171-7.483-0.35-11.211c-0.005-0.089-0.021-0.234-0.027-0.33c0.26-0.264,0.565-0.487,0.794-0.779    c0.4-0.512-0.128-1.438-0.761-0.985c-0.058,0.04-0.112,0.085-0.169,0.126c-0.54-5.329-1.961-15.556,0.921-18.865    C125.312,128.33,128.75,143.899,120.079,153.465z"/></g><path d="M24.559,24.314c0,0.996-0.562,1.764-1.686,2.297c-1.121,0.533-2.32,0.803-3.592,0.803c-0.781,0-2.996-0.422-6.646-1.262   c-0.096-0.023-0.258-0.072-0.486-0.146c-0.229-0.071-0.51-0.133-0.846-0.182c-0.336-0.048-0.738-0.07-1.207-0.07   c-0.504,0-0.949,0.07-1.332,0.216c-0.385,0.146-1.049,0.407-1.99,0.793c-0.943,0.385-1.582,0.575-1.918,0.575   c-0.457,0-0.904-0.207-1.342-0.621c-0.439-0.413-0.658-0.956-0.658-1.631c0-0.252,0.078-0.516,0.234-0.791   c0.156-0.276,0.402-0.592,0.738-0.946c0.336-0.354,0.84-0.818,1.514-1.396c0.611-0.519,1.125-1.24,1.539-2.17   c0.414-0.933,0.621-1.847,0.621-2.746c0-0.313-0.061-0.842-0.18-1.586H5.808c-0.889,0-1.557-0.106-2.008-0.324   c-0.449-0.217-0.674-0.647-0.674-1.296c0-1.177,0.762-1.766,2.287-1.766h1.063c-0.59-1.872-0.883-3.35-0.883-4.43   c0-1.477,0.348-2.792,1.045-3.944c0.695-1.153,1.691-2.056,2.988-2.71C10.922,0.327,12.405,0,14.075,0   c1.477,0,2.744,0.184,3.798,0.55c1.058,0.366,1.994,0.97,2.812,1.81c1.394,1.453,2.09,3.002,2.09,4.646   c0,0.589-0.229,1.111-0.687,1.567c-0.455,0.456-1.014,0.685-1.674,0.685c-1.164,0-1.938-0.649-2.324-1.946   c-0.348-1.248-0.823-2.17-1.432-2.764c-0.604-0.594-1.421-0.892-2.438-0.892c-1.105,0-1.998,0.357-2.676,1.071   c-0.678,0.715-1.018,1.637-1.018,2.765c0,0.685,0.072,1.324,0.217,1.918c0.145,0.595,0.396,1.479,0.756,2.656h2.684   c0.983,0,1.748,0.1,2.287,0.298c0.541,0.198,0.812,0.663,0.812,1.396c0,0.506-0.181,0.914-0.539,1.225   c-0.361,0.313-0.83,0.469-1.404,0.469h-3.188v0.307c0,1.215-0.273,2.328-0.818,3.342c-0.547,1.017-1.498,2.283-2.855,3.81   c0.396-0.095,0.789-0.187,1.18-0.271c0.391-0.082,0.828-0.158,1.314-0.227c0.486-0.064,1.018-0.1,1.594-0.1   c0.805,0,1.929,0.094,3.369,0.279c1.438,0.188,2.396,0.278,2.861,0.278c0.686,0,1.422-0.123,2.205-0.369   c0.787-0.246,1.283-0.369,1.486-0.369c0.541,0,1.021,0.218,1.441,0.648C24.348,23.217,24.559,23.729,24.559,24.314z" transform="matrix(1.1546908450026947 0.1732036251739812 -0.1732036251739812 1.1546908450026947 312.511417535785 93.58443218114371)" id="L1_7"/><g transform="matrix(0.07566114535022411 0.022418118181626177 -0.022418118181626177 0.07566114535022411 191.70763417814734 28.98774585099213)" id="L1_8"><path d="M587.52,122.4 24.48,122.4 24.48,146.88 587.52,146.88 587.52,465.12 612,465.12 612,146.88 612,122.4z"/><path d="M304.054,344.789c-2.283-1.61-5.777-2.821-10.502-3.648v21.114c9.29-1.2,13.929-4.645,13.929-10.337    C307.481,348.779,306.337,346.41,304.054,344.789z"/><path d="M281.52,218.411c-50.698,0-91.8,49.321-91.8,110.16s41.102,110.16,91.8,110.16s91.8-49.321,91.8-110.16    S332.218,218.411,281.52,218.411z M322.132,374.042c-6.701,5.471-16.218,8.874-28.58,10.22v11.567H275.7v-11.004    c-7.338-0.226-14.241-0.881-20.716-1.965c-6.481-1.083-11.848-2.601-16.114-4.547v-22.008c2.919,1.047,5.759,1.958,8.531,2.748    s5.618,1.463,8.544,2.02c2.919,0.563,5.991,1.01,9.204,1.353c3.213,0.337,6.744,0.545,10.557,0.618v-24.59    c-4.719-0.679-9.394-1.597-14.033-2.754c-4.645-1.157-8.819-2.901-12.522-5.226c-3.709-2.319-6.726-5.386-9.045-9.204    s-3.476-8.758-3.476-14.829c0-4.939,0.894-9.333,2.693-13.182c1.793-3.862,4.382-7.191,7.748-10    c3.372-2.803,7.473-5.073,12.295-6.793c4.835-1.72,10.282-2.919,16.34-3.592v-11.567h17.852v11.23    c5.465,0.3,11.028,0.912,16.683,1.848c5.649,0.936,10.839,2.234,15.551,3.88v22.234c-11.53-3.745-22.277-5.838-32.234-6.285    v24.927c4.719,0.747,9.382,1.738,13.978,2.974c4.608,1.23,8.727,3.029,12.356,5.392c3.629,2.356,6.585,5.447,8.862,9.26    c2.283,3.819,3.433,8.727,3.433,14.712C332.181,361.056,328.828,368.583,322.132,374.042z"/><path d="M261.22,305.327c0,3.146,1.193,5.539,3.592,7.191c2.399,1.646,6.022,2.919,10.887,3.813v-21.555    c-5.471,0.6-9.247,1.812-11.34,3.648C262.26,300.253,261.22,302.561,261.22,305.327z"/><path d="M459.055,171.36h-348.95H87.938H0v89.468v18.501v104.346v17.987V489.6h87.938h22.167h348.95h14.517h89.468v-87.938    v-17.987V279.329v-18.501V171.36h-89.468H459.055z M538.56,275.773v111.457c-37.65,10.006-67.094,39.945-76.384,77.889H106.978    c-9.786-39.994-41.922-71.212-82.498-79.45V277.328c41.267-8.378,73.85-40.514,83.018-81.488h354.158    C470.365,234.751,500.224,265.584,538.56,275.773z"/><circle cx="124" cy="327" r="33"/><circle cx="443" cy="327" r="33"/></g><g transform="matrix(0.778673529624939 0 0 0.778673529624939 61.21830105781555 234.2319813589504)" id="L1_9"><path d="M60.855,0.132h-3.769l-1.492,1.491l-1.49-1.491h-3.572L49.04,1.623l-1.488-1.491h-3.573l-1.491,1.491l-1.491-1.491h-3.572    l-1.491,1.491l-1.491-1.491h-3.573l-1.491,1.491l-1.491-1.491h-4.154v26.253l-6.002,5.927l6.002,4.201v24.21h4.002l1.643-1.643    l1.643,1.643h3.268l1.644-1.643l1.643,1.643h3.269l1.643-1.643l1.642,1.643h3.27l1.643-1.643l1.643,1.643h3.269l1.643-1.643    l1.643,1.643h3.618V0.132H60.855z M59.293,59.159h-1.408l-2.29-2.289l-2.29,2.289H51.33l-2.289-2.29l-2.288,2.29h-1.976    l-2.289-2.29l-2.288,2.29h-1.976l-2.29-2.289l-2.289,2.289H31.67l-2.289-2.289l-2.29,2.289h-1.793V37.606l0.814,0.569l3.829-3.78    l-4.643-6.816V1.695h1.945l2.137,2.139l2.138-2.139h2.278l2.139,2.137l2.139-2.137h2.278l2.138,2.137l2.139-2.137h2.278    l2.138,2.137l2.139-2.137h2.279L55.6,3.832l2.14-2.137h1.56v57.464H59.293z"/><path d="M39.462,28.935c-0.25-0.43-0.446-1.277-0.586-2.539H34.82c-0.03,2.774,0.811,4.737,2.524,5.889    c0.971,0.64,2.443,1.071,4.415,1.29v2.991h1.458v-3.021c1.553-0.12,2.896-0.531,4.026-1.231c1.854-1.143,2.779-2.975,2.779-5.499    c0-1.912-0.675-3.395-2.019-4.447c-0.817-0.631-2.413-1.357-4.787-2.179v-5.724c0.989,0.07,1.674,0.46,2.048,1.172    c0.218,0.411,0.366,1.062,0.446,1.953h3.951c-0.061-2.403-0.932-4.142-2.617-5.212c-0.926-0.67-2.202-1.072-3.828-1.202V9.149    h-1.459v1.998c-1.021,0.08-1.797,0.205-2.327,0.376c-0.871,0.271-1.662,0.761-2.374,1.472c-0.552,0.551-0.979,1.207-1.284,1.967    c-0.305,0.762-0.459,1.608-0.459,2.539c0,1.413,0.394,2.619,1.18,3.621c0.786,1.001,2.135,1.782,4.049,2.344l1.216,0.36v6.415    C40.618,30.041,39.853,29.605,39.462,28.935z M43.217,24.322c0.831,0.31,1.422,0.61,1.769,0.901    c0.582,0.501,0.875,1.183,0.875,2.042c0,1.131-0.312,1.928-0.937,2.389c-0.354,0.26-0.926,0.441-1.707,0.541V24.322z     M40.138,19.02c-0.631-0.491-0.947-1.156-0.947-1.998c0-0.771,0.211-1.379,0.632-1.825c0.421-0.445,1.066-0.678,1.937-0.699v5.273    C41.029,19.54,40.487,19.29,40.138,19.02z"/><rect x="31px" y="46px" width="22px" height="2px"/><path d="M0.723,12.46 16.857,31.519 23.403,25.056 4.552,8.681z"/><path d="M36.212,44.927c0,0-2.198-2.905-1.847-5.908l-4.55-3.551l-2.627,2.642l3.088,4.149    C30.276,42.259,34.115,42.461,36.212,44.927z M32.973,40.482c-0.005,0.017-0.006,0.033-0.011,0.049    c-0.023,0.067-0.058,0.127-0.096,0.185c-0.022,0.034-0.042,0.07-0.069,0.101c-0.031,0.033-0.067,0.061-0.104,0.09    c-0.05,0.038-0.098,0.075-0.155,0.103c-0.029,0.014-0.061,0.02-0.091,0.029c-0.052,0.018-0.1,0.045-0.157,0.051    c-0.024,0.002-0.047-0.006-0.071-0.006c-0.009,0-0.016,0.004-0.022,0.004c-0.018,0-0.034-0.01-0.051-0.01    c-0.085-0.008-0.165-0.021-0.242-0.051c-0.024-0.011-0.046-0.024-0.069-0.037c-0.066-0.034-0.126-0.071-0.181-0.122    c-0.03-0.028-0.053-0.06-0.078-0.092c-0.034-0.044-0.068-0.087-0.092-0.14c-0.03-0.059-0.045-0.12-0.061-0.186    c-0.005-0.024-0.02-0.044-0.021-0.069c-0.001-0.01,0.003-0.021,0.003-0.03c-0.003-0.028-0.017-0.053-0.015-0.082    c0-0.068,0.023-0.128,0.038-0.19c0.002-0.006,0.002-0.014,0.005-0.02c0.097-0.345,0.4-0.602,0.774-0.599    c0.45,0.003,0.812,0.37,0.809,0.818C33.015,40.351,32.99,40.415,32.973,40.482z"/><path d="M0,11.802l3.531-3.486C-0.107,8.283,0,11.802,0,11.802z"/><path d="M53.914,41.565c-1.478,0.864-2.944,1.709-4.598,2.14c-0.087-0.543-0.173-1.085-0.283-1.625    c-0.031-0.321-0.311-0.612-0.659-0.502c-1.945,0.614-3.562,1.874-5.468,2.557c-0.155-0.71-0.309-1.419-0.467-2.128    c-0.077-0.348-0.479-0.454-0.764-0.312c-1.699,0.838-3.415,1.636-5.145,2.408c-0.612,0.273-0.082,1.172,0.526,0.899    c1.516-0.679,3.021-1.381,4.513-2.107c0.15,0.686,0.299,1.371,0.45,2.055c0.062,0.276,0.379,0.44,0.641,0.364    c1.954-0.564,3.562-1.809,5.439-2.532c0.095,0.569,0.21,1.129,0.3,1.713c0.047,0.296,0.389,0.413,0.642,0.364    c1.982-0.385,3.673-1.388,5.398-2.397C55.02,42.127,54.495,41.227,53.914,41.565z"/></g><g transform="matrix(0.08843149244785309 0 0 0.08843149244785309 252.36150932312012 259.3615093231201)" id="L1_10"><path d="m400 268.410156v-65.335937l4.074219 3c2.136719 1.570312 4.816406 2.230469 7.4375 1.828125 2.625-.402344 4.980469-1.832032 6.550781-3.972656l23.59375-32.1875c3.261719-4.449219 2.304688-10.699219-2.136719-13.96875l-211.796875-155.828126c-3.523437-2.59375-8.328125-2.59375-11.851562 0l-73.683594 54.214844c-4.449219 3.269532-5.402344 9.53125-2.128906 13.980469 3.273437 4.445313 9.535156 5.398437 13.980468 2.125l67.757813-49.851563 197.828125 145.554688-11.769531 16.058594-180.132813-132.535156c-3.523437-2.59375-8.328125-2.59375-11.851562 0l-180.132813 132.535156-11.773437-16.058594 65.636718-48.289062c4.449219-3.273438 5.402344-9.535157 2.128907-13.980469-3.273438-4.449219-9.535157-5.402344-13.980469-2.128907l-73.675781 54.207032c-4.441407 3.269531-5.398438 9.515625-2.136719 13.964844l23.59375 32.191406c1.566406 2.140625 3.925781 3.566406 6.550781 3.972656.503907.074219 1.007813.113281 1.511719.113281 2.121094 0 4.199219-.675781 5.929688-1.945312l4.070312-2.996094v166.921875c0 5.519531 4.480469 10 10 10h214.820312c-.277343 3.316406-.417968 6.652344-.417968 9.996094 0 67.273437 54.730468 122.003906 122.003906 122.003906 67.269531 0 122-54.730469 122-122.003906 0-63.902344-49.390625-116.484375-112-121.585938zm-226.183594 91.589844v-140h95.960938v140zm216.183594 132c-56.246094 0-102.003906-45.757812-102.003906-102.003906 0-23.359375 8.101562-46.1875 22.8125-64.28125 3.484375-4.289063 2.832031-10.585938-1.449219-14.070313-4.285156-3.480469-10.585937-2.832031-14.070313 1.453125-1.933593 2.378906-3.769531 4.835938-5.511718 7.347656v-100.445312c0-11.027344-8.972656-20-20-20h-95.960938c-11.027344 0-20 8.972656-20 20v140h-90.222656v-171.640625l158.203125-116.398437 158.203125 116.398437v80.050781c-3.101562.253906-6.1875.617188-9.246094 1.101563-5.453125.867187-9.171875 5.988281-8.308594 11.445312.863282 5.453125 5.976563 9.171875 11.441407 8.308594 5.3125-.84375 10.730469-1.269531 16.109375-1.269531 56.246094 0 102.003906 45.757812 102.003906 102 0 56.246094-45.757812 102.003906-102 102.003906zm0 0"/><path d="m249.773438 280h-.003907c-5.523437 0-9.996093 4.476562-9.996093 10 0 5.519531 4.476562 10 10 10 5.523437 0 10-4.480469 10-10 0-5.523438-4.476563-10-10-10zm0 0"/><path d="m115.898438 97.921875c2.128906 0 4.273437-.675781 6.089843-2.074219l.007813-.003906c4.375-3.367188 5.191406-9.644531 1.824218-14.023438-3.367187-4.375-9.644531-5.191406-14.023437-1.824218-4.378906 3.367187-5.199219 9.644531-1.832031 14.019531 1.96875 2.5625 4.9375 3.90625 7.933594 3.90625zm0 0"/><path d="m329.035156 284.320312-.003906.003907c-4.796875 2.738281-6.460938 8.84375-3.71875 13.640625 1.84375 3.230468 5.21875 5.039062 8.691406 5.039062 1.683594 0 3.386719-.425781 4.953125-1.320312 4.796875-2.738282 6.460938-8.847656 3.722657-13.644532-2.738282-4.792968-8.847657-6.457031-13.644532-3.71875zm0 0"/><path d="m397.152344 364.15625c3.90625 3.902344 10.234375 3.902344 14.144531 0 3.902344-3.90625 3.902344-10.238281 0-14.144531-3.261719-3.257813-7.160156-5.496094-11.296875-6.710938v-3.304687c0-5.519532-4.480469-10-10-10-5.523438 0-10 4.480468-10 10v5.28125c-2.3125 1.21875-4.476562 2.792968-6.417969 4.734375-10.398437 10.394531-10.398437 27.3125 0 37.710937l18.6875 18.6875c1.261719 1.261719 1.953125 2.9375 1.953125 4.714844 0 1.78125-.691406 3.457031-1.953125 4.714844-1.257812 1.261718-2.933593 1.953125-4.714843 1.953125-1.777344 0-3.453126-.691407-4.710938-1.953125-3.90625-3.902344-10.238281-3.902344-14.144531 0-3.90625 3.90625-3.90625 10.238281 0 14.144531 3.257812 3.257813 7.160156 5.492187 11.296875 6.710937v3.300782c0 5.523437 4.480468 10 10 10 5.523437 0 10-4.476563 10-10v-5.28125c2.308594-1.21875 4.476562-2.792969 6.414062-4.734375 10.398438-10.394531 10.398438-27.3125 0-37.710938l-18.6875-18.6875c-2.597656-2.601562-2.597656-6.828125 0-9.429687 2.601563-2.597656 6.832032-2.597656 9.429688.003906zm0 0"/></g><g transform="matrix(0.6027795454180395 0.13910296887890147 -0.13910296887890147 0.6027795454180395 318.45577577930214 166.5490244073066)" id="L1_11"><path d="m56.526 30.376-.172-.316 5.318-5.318c.856-.856 1.328-1.995 1.328-3.206 0-2.501-2.035-4.536-4.536-4.536-.508 0-.997.101-1.464.26v-13.26c0-1.654-1.346-3-3-3h-31.171c-.801 0-1.555.312-2.122.879l-8.828 8.828c-.567.566-.879 1.32-.879 2.122v2.222c-5.598.507-10 5.221-10 10.949v32c0 2.757 2.243 5 5 5h12c2.757 0 5-2.243 5-5v-1h24 1 14.181l-2.184-13.104c-.018-4.711-1.215-9.384-3.471-13.52zm1.45 12.867-9.749 2.659-2.351-1.881c-1.192-.955-1.876-2.378-1.876-3.905v-8.116-1c1.103 0 2 .897 2 2v7h2v-1.586l6.874-6.874c1.923 3.6 2.984 7.624 3.102 11.703zm-13.976-14.243c-1.103 0-2 .897-2 2v1c0 .551-.449 1-1 1s-1-.449-1-1v-1c0-2.206 1.794-4 4-4h2.586l-2.054 2.054c-.176-.024-.35-.054-.532-.054zm-10.951 17.072 1.316-3.292 2.855 2.855-3.293 1.317c-.423.172-.927-.169-.927-.629 0-.087.016-.171.049-.251zm5.951-1.486-3.586-3.586 6.047-6.047c.187-.029.366-.076.539-.138v5.3c0 .454.052.898.136 1.334zm-.816-11.586h-11.184v-4h11.35c-.222.627-.35 1.298-.35 2v1c0 .352.072.686.184 1zm-11.184 2h11.586l-4 4h-7.586zm0 6h5.923l-1.6 4h-4.323zm0 6h4.098c.302 1.147 1.339 2 2.58 2 .343 0 .678-.064.994-.191l2.328-.932v3.123h-10zm12 .077.562-.225 3.33-3.33c.036.065.069.131.108.195v7.283h-4zm6-1.197 2 1.6v3.52h-2zm16-24.344c0 .677-.264 1.314-.743 1.793l-12.257 12.257v-2.586c0-1.252-.59-2.358-1.494-3.092l10.165-10.165c.479-.479 1.116-.743 1.793-.743 1.398 0 2.536 1.138 2.536 2.536zm-40-17.122v5.586c0 .551-.449 1-1 1h-5.586zm-9 12.586c4.962 0 9 4.038 9 9s-4.038 9-9 9-9-4.038-9-9 4.038-9 9-9zm-5 18.786c1.502.77 3.199 1.214 5 1.214s3.498-.444 5-1.214v5.214h-10zm11 25.214h-12c-1.654 0-3-1.346-3-3v-25.695c.569.81 1.239 1.544 2 2.174v6.521c0 1.103.897 2 2 2h10c1.103 0 2-.897 2-2v-6.521c.761-.63 1.431-1.364 2-2.174v25.695c0 1.654-1.346 3-3 3zm5-6v-29c0-5.728-4.402-10.442-10-10.949v-2.051h7c1.654 0 3-1.346 3-3v-7h31c.551 0 1 .449 1 1v14.586l-6.414 6.414h-4.586c-1.771 0-3.36.776-4.46 2h-14.54v26h22v2zm26 0v-7.236l9.195-2.508 1.624 9.744z"/><path d="m11 30.855v2.145h2v-2.145c1.155-.366 2-1.435 2-2.709 0-1.087-.604-2.066-1.578-2.553l-1.95-.974c-.291-.146-.472-.439-.472-.765 0-.471.383-.854.854-.854h.292c.471 0 .854.383.854.854v1.146h2v-1.146c0-1.274-.845-2.343-2-2.709v-2.145h-2v2.145c-1.155.366-2 1.435-2 2.709 0 1.087.604 2.066 1.578 2.553l1.95.974c.291.146.472.439.472.765 0 .471-.383.854-.854.854h-.292c-.471 0-.854-.383-.854-.854v-1.146h-2v1.146c0 1.274.845 2.343 2 2.709z"/><path d="m17 45h-10c-1.103 0-2 .897-2 2v10c0 1.103.897 2 2 2h10c1.103 0 2-.897 2-2v-10c0-1.103-.897-2-2-2zm0 4h-2v-2h2zm-4 8h-2v-2h2zm0-4h-2v-2h2zm-4 0h-2v-2h2zm2-4v-2h2v2zm-2-2v2h-2v-2zm-2 8h2v2h-2zm8 2v-6h2.001l.001 6z"/><path d="m53 5h-28v6h28zm-2 4h-24v-2h24z"/><path d="m25 13h28v2h-28z"/><path d="m25 17h28v2h-28z"/><path d="m25 21h16v2h-16z"/></g><g transform="matrix(0.06362687796354294 0 0 0.06362687796354294 38.69807369857102 73.30354052556982)" id="L1_12"><path d="m426.523 283.917-76.444-119.836c10.831-5.692 18.24-17.05 18.24-30.112 0-14.297-8.875-26.553-21.402-31.57l23.158-80.964c.999-3.493.025-7.252-2.543-9.821-15.405-15.404-40.469-15.404-55.874 0-3.685 3.685-8.584 5.714-13.795 5.714s-10.11-2.029-13.818-5.738l-.049-.049c-15.35-15.352-40.371-15.395-55.783-.091l-.287.286c-7.607 7.553-19.962 7.531-27.541-.049l-.073-.073c-15.405-15.404-40.469-15.404-55.874 0-2.57 2.571-3.543 6.333-2.542 9.828l23.208 80.938c-12.554 5.004-21.453 17.273-21.453 31.59 0 13.062 7.408 24.42 18.24 30.112l-76.445 119.835c-29.574 46.36-31.448 102.826-5.013 151.045s75.047 77.007 130.038 77.007h91.026c54.99 0 103.602-28.788 130.038-77.007 26.435-48.219 24.562-104.685-5.012-151.045zm-240.354-258.161.073.073c15.352 15.351 40.372 15.393 55.783.091l.287-.286c7.606-7.553 19.961-7.531 27.564.072l.049.049c15.405 15.404 40.469 15.404 55.874 0 6.268-6.268 15.775-7.371 23.183-3.309l-22.172 77.523h-141.59l-22.23-77.524c7.408-4.061 16.912-2.956 23.179 3.311zm227.829 399.592c-22.87 41.716-64.926 66.622-112.5 66.622h-91.026c-47.574 0-89.63-24.905-112.5-66.622-22.87-41.716-21.249-90.566 4.336-130.675l80.825-126.704h27.852c5.523 0 10-4.477 10-10s-4.477-10-10-10h-33.334c-7.72 0-14-6.28-14-14s6.28-14 14-14h.033 156.634c7.72 0 14 6.28 14 14s-6.28 14-14 14h-33.333c-5.523 0-10 4.477-10 10s4.477 10 10 10h27.851l80.826 126.704c25.585 40.108 27.206 88.958 4.336 130.675z" id="XMLID_1329_"/><path d="m273.615 326.579c-2.509-.887-5.07-1.81-7.63-2.769v-45.322c6.78 1.995 11.308 5.23 11.5 5.37 4.399 3.295 10.64 2.421 13.964-1.966 3.335-4.402 2.47-10.674-1.932-14.01-.587-.445-9.885-7.347-23.532-9.96v-9.952c0-5.523-4.477-10-10-10s-10 4.477-10 10v9.88c-1.694.325-3.411.736-5.151 1.259-14.074 4.229-24.594 16.265-27.455 31.411-2.611 13.83 1.82 27.169 11.564 34.811 5.288 4.147 11.895 7.934 21.042 11.956v57.996c-7.875-.498-13.143-2.29-21.925-8.035-4.621-3.025-10.82-1.728-13.843 2.894-3.024 4.622-1.728 10.819 2.894 13.843 12.806 8.377 21.477 10.75 32.874 11.311v10.341c0 5.523 4.477 10 10 10s10-4.477 10-10v-11.38c21.414-4.69 33.938-22.559 36.748-39.275 3.673-21.854-7.756-40.853-29.118-48.403zm-36.329-16.986c-3.844-3.015-5.474-8.902-4.254-15.363 1.122-5.942 5.12-13.107 12.953-15.758v36.623c-3.288-1.753-6.255-3.585-8.699-5.502zm45.723 62.072c-1.44 8.565-7.221 17.649-17.025 21.663v-48.239c.326.116.635.229.965.346 17.929 6.337 16.826 21.679 16.06 26.23z" id="XMLID_1341_"/><path d="m255.985 167.969c2.63 0 5.21-1.07 7.07-2.93s2.93-4.44 2.93-7.07-1.07-5.21-2.93-7.07-4.44-2.93-7.07-2.93-5.21 1.07-7.07 2.93-2.93 4.44-2.93 7.07 1.07 5.21 2.93 7.07 4.439 2.93 7.07 2.93z" id="XMLID_1343_"/></g><g transform="matrix(0.06802011281251907 0 0 0.06802011281251907 130.67516577243805 307.67516577243805)" id="L1_13"><path d="m384 280v-112c.113281-52.625-39.207031-96.988281-91.464844-103.199219l26.664063-53.226562c1.242187-2.484375 1.105469-5.4375-.363281-7.800781-1.46875-2.359376-4.054688-3.789063-6.835938-3.773438h-144c-2.773438 0-5.347656 1.433594-6.808594 3.792969-1.457031 2.355469-1.589844 5.300781-.351562 7.78125l26.632812 53.226562c-52.171875 6.375-91.40625 50.640625-91.472656 103.199219v144h16v-144c.058594-48.578125 39.421875-87.941406 88-88h80c23.347656-.035156 45.753906 9.226562 62.261719 25.738281 16.511719 16.507813 25.773437 38.914063 25.738281 62.261719v112zm-108.945312-216h-70.109376l-24-48h118.109376zm0 0"/><path d="m172 119.511719c4.378906-2.542969 9.085938-4.476563 13.992188-5.742188l-4-15.488281c-6.308594 1.636719-12.367188 4.121094-18.007813 7.382812zm0 0"/><path d="m128 200h16v-32c-.039062-15.144531 6.101562-29.648438 17.007812-40.160156l-11.144531-11.472656c-14.019531 13.511718-21.917969 32.160156-21.863281 51.632812zm0 0"/><path d="m22.816406 393.183594 135.816406 74.074218c15.285157 8.355469 32.425782 12.738282 49.847657 12.742188h263.519531c4.417969 0 8-3.582031 8-8v-144c0-4.417969-3.582031-8-8-8h-61.222656l-.914063-.710938c-9.394531-7.335937-19.78125-13.304687-30.847656-17.738281-38.816406-15.839843-82.894531-11.945312-118.335937 10.449219h-60.679688c-12.738281-.003906-24.71875 6.0625-32.257812 16.332031-7.535157 10.269531-9.730469 23.515625-5.910157 35.667969l-98.894531-49.550781c-14.6875-7.375-32.300781-5.691407-45.320312 4.335937-11.070313 8.292969-17.5937505 21.304688-17.617188 35.136719v.878906c-.0195312 16.011719 8.738281 30.75 22.816406 38.382813zm393.183594-57.183594h48v128h-48zm-400 17.921875c.058594-8.957031 4.359375-17.359375 11.59375-22.640625 8.144531-6.144531 19.074219-7.125 28.183594-2.527344l124.648437 62.398438c1.105469.558594 2.332031.847656 3.574219.847656h120v-16h-104c-13.253906 0-24-10.746094-24-24s10.746094-24 24-24h63.039062c1.566407-.003906 3.097657-.460938 4.410157-1.320312 31.34375-20.640626 70.855469-24.492188 105.597656-10.289063 9.667969 3.875 18.742187 9.089844 26.953125 15.488281v132.121094h-191.519531c-14.742188-.003906-29.242188-3.714844-42.175781-10.785156l-135.855469-74.085938c-8.921875-4.839844-14.46875-14.179687-14.449219-24.328125zm0 0"/><path d="m432 424h16v16h-16zm0 0"/><path d="m248 280v-16h8c17.671875 0 32-14.328125 32-32s-14.328125-32-32-32h-32c-8.835938 0-16-7.164062-16-16s7.164062-16 16-16h56v-16h-32v-16h-16v16h-8c-17.671875 0-32 14.328125-32 32s14.328125 32 32 32h32c8.835938 0 16 7.164062 16 16s-7.164062 16-16 16h-56v16h32v16zm0 0"/></g><g transform="matrix(0.0737159326672554 0 0 0.0737159326672554 -7.691924301041695 314.30805096924473)" id="L1_14"><path d="M195.353,299.344l-17.64-5.864c-5.802-1.933-9.715-7.364-9.712-13.48c0-8.837,7.163-16,16-16s16,7.163,16,16h16    c-0.055-14.547-9.914-27.227-24-30.864V232h-16v17.136c-14.085,3.637-23.945,16.317-24,30.864    c-0.01,13.003,8.31,24.55,20.648,28.656l17.64,5.864c5.802,1.933,9.715,7.364,9.712,13.48c0,8.837-7.163,16-16,16s-16-7.163-16-16    h-16c0.055,14.547,9.915,27.227,24,30.864V376h16v-17.136c14.086-3.637,23.945-16.317,24-30.864    C216.011,314.997,207.691,303.45,195.353,299.344z"/><path d="M472.001,176H310.273c-16.906-20.834-38.159-37.724-62.272-49.488V92l28.8-21.6c2.014-1.511,3.2-3.882,3.2-6.4V8    c0-4.418-3.582-8-8-8h-32c-2.122,0-4.156,0.844-5.656,2.344l-10.344,10.344L213.657,2.344c-1.5-1.5-3.534-2.344-5.656-2.344h-48    c-2.122,0-4.156,0.844-5.656,2.344l-10.344,10.344L133.657,2.344c-1.5-1.5-3.534-2.344-5.656-2.344h-32c-4.418,0-8,3.582-8,8v56    c0,2.518,1.186,4.889,3.2,6.4l28.8,21.6v34.592c-60.56,29.304-120,108.016-120,208.968c0,91.792,67.064,144.44,184,144.44    c18.981,0.068,37.928-1.614,56.6-5.024c1.213,3.026,4.14,5.013,7.4,5.024h224c4.418,0,8-3.582,8-8V184    C480.001,179.582,476.419,176,472.001,176z M104.001,60V16h20.688l13.656,13.656c3.124,3.123,8.188,3.123,11.312,0L163.313,16    h41.376l13.656,13.656c3.124,3.123,8.188,3.123,11.312,0L243.313,16h20.688v44l-26.664,20H130.665L104.001,60z M232.001,96v24h-96    V96H232.001z M240.001,371.784c-37.434,30.996-92.907,25.778-123.904-11.656c-30.996-37.434-25.778-92.907,11.656-123.904    c32.559-26.96,79.688-26.96,112.247,0V371.784z M240.001,184v32.456c-48.347-31.01-112.679-16.956-143.689,31.391    c-31.01,48.347-16.956,112.679,31.391,143.689c34.216,21.947,78.083,21.947,112.299,0v67.28c-18.456,3.53-37.21,5.266-56,5.184    c-50.512,0-168-12.512-168-128.44c0-76.536,45.872-171.768,122.672-199.56h90.712c22.63,8.59,42.977,22.277,59.464,40h-40.848    C243.583,176,240.001,179.582,240.001,184z M464.001,464h-208V256h208V464z M464.001,240h-208v-48h208V240z"/><path d="M312.001,272h-32c-4.418,0-8,3.582-8,8v32c0,4.418,3.582,8,8,8h32c4.418,0,8-3.582,8-8v-32    C320.001,275.582,316.419,272,312.001,272z M304.001,304h-16v-16h16V304z"/><path d="M376.001,272h-32c-4.418,0-8,3.582-8,8v32c0,4.418,3.582,8,8,8h32c4.418,0,8-3.582,8-8v-32    C384.001,275.582,380.419,272,376.001,272z M368.001,304h-16v-16h16V304z"/><path d="M440.001,272h-32c-4.418,0-8,3.582-8,8v32c0,4.418,3.582,8,8,8h32c4.418,0,8-3.582,8-8v-32    C448.001,275.582,444.419,272,440.001,272z M432.001,304h-16v-16h16V304z"/><path d="M312.001,336h-32c-4.418,0-8,3.582-8,8v32c0,4.418,3.582,8,8,8h32c4.418,0,8-3.582,8-8v-32    C320.001,339.582,316.419,336,312.001,336z M304.001,368h-16v-16h16V368z"/><path d="M376.001,336h-32c-4.418,0-8,3.582-8,8v32c0,4.418,3.582,8,8,8h32c4.418,0,8-3.582,8-8v-32    C384.001,339.582,380.419,336,376.001,336z M368.001,368h-16v-16h16V368z"/><path d="M312.001,400h-32c-4.418,0-8,3.582-8,8v32c0,4.418,3.582,8,8,8h32c4.418,0,8-3.582,8-8v-32    C320.001,403.582,316.419,400,312.001,400z M304.001,432h-16v-16h16V432z"/><path d="M376.001,400h-32c-4.418,0-8,3.582-8,8v32c0,4.418,3.582,8,8,8h32c4.418,0,8-3.582,8-8v-32    C384.001,403.582,380.419,400,376.001,400z M368.001,432h-16v-16h16V432z"/><path d="M440.001,336h-32c-4.418,0-8,3.582-8,8v96c0,4.418,3.582,8,8,8h32c4.418,0,8-3.582,8-8v-96    C448.001,339.582,444.419,336,440.001,336z M432.001,432h-16v-80h16V432z"/><rect x="432px" y="208px" width="16px" height="16px"/><rect x="400px" y="208px" width="16px" height="16px"/><rect x="368px" y="208px" width="16px" height="16px"/></g><g transform="matrix(0.04979511350393295 0 0 0.04979511350393295 48.252450942993164 301.25245094299316)" id="L1_15"><path d="m196 512c44.242188 0 78.496094-4.234375 105.972656-12.890625-.582031-3.125-.972656-6.320313-.972656-9.609375 0-14.695312 6.109375-27.960938 15.875-37.5-9.765625-9.539062-15.875-22.804688-15.875-37.5s6.109375-27.960938 15.875-37.5c-9.765625-9.539062-15.875-22.804688-15.875-37.5s6.109375-27.960938 15.875-37.5c-9.765625-9.539062-15.875-22.804688-15.875-37.5 0-17.359375 8.570312-32.660156 21.597656-42.222656-8.921875-8.167969-18.453125-15.488282-28.453125-21.929688 4.0625-5.117187 6.855469-11.308594 6.855469-18.347656 0-16.570312-13.429688-30-30-30h-150c-16.570312 0-30 13.429688-30 30 0 7.023438 2.785156 13.195312 6.824219 18.304688-58.234375 37.515624-97.824219 105.449218-97.824219 176.695312 0 121.011719 112.285156 135 196 135zm-.160156-145.605469c-24.816406 0-45-20.183593-45-45 0-19.589843 12.65625-36.117187 30.160156-42.285156v-22.109375c0-8.289062 6.710938-15 15-15s15 6.710938 15 15v22.210938c17.339844 6.253906 29.839844 22.714843 29.839844 42.183593 0 8.292969-6.710938 15-15 15-8.292969 0-15-6.707031-15-15 0-8.277343-6.726563-15-15-15-8.277344 0-15 6.722657-15 15 0 8.277344 6.722656 15 15 15 24.8125 0 45 20.1875 45 45 0 19.46875-12.5 35.929688-29.839844 42.1875v13.417969c0 8.289062-6.710938 15-15 15s-15-6.710938-15-15v-13.320312c-17.503906-6.164063-30.160156-22.695313-30.160156-42.285157 0-8.289062 6.707031-15 15-15 8.289062 0 15 6.710938 15 15 0 8.277344 6.722656 15 15 15 8.273437 0 15-6.722656 15-15 0-8.277343-6.726563-15-15-15zm0 0"/><path d="m489.5 467h-136c-12.425781 0-22.5 10.074219-22.5 22.5s10.074219 22.5 22.5 22.5h136c12.425781 0 22.5-10.074219 22.5-22.5s-10.074219-22.5-22.5-22.5zm0 0"/><path d="m489.5 392h-136c-12.425781 0-22.5 10.074219-22.5 22.5s10.074219 22.5 22.5 22.5h136c12.425781 0 22.5-10.074219 22.5-22.5s-10.074219-22.5-22.5-22.5zm0 0"/><path d="m489.5 317h-136c-12.425781 0-22.5 10.074219-22.5 22.5s10.074219 22.5 22.5 22.5h136c12.425781 0 22.5-10.074219 22.5-22.5s-10.074219-22.5-22.5-22.5zm0 0"/><path d="m489.5 242h-136c-12.425781 0-22.5 10.074219-22.5 22.5s10.074219 22.5 22.5 22.5h136c12.425781 0 22.5-10.074219 22.5-22.5s-10.074219-22.5-22.5-22.5zm0 0"/><path d="m238.238281 30c-6.214843-17.421875-22.707031-30-42.238281-30-19.554688 0-36.238281 12.539062-42.4375 30h-47.5625c-4.820312 0-9.347656 2.3125-12.171875 6.226562-2.8125 3.910157-3.589844 8.949219-2.050781 13.519532l23.417968 72.253906h161.613282l23.414062-72.253906c1.539063-4.570313.761719-9.609375-2.050781-13.519532-2.824219-3.914062-7.351563-6.226562-12.171875-6.226562zm0 0"/></g><g transform="matrix(0.05408457666635513 0 0 0.05408457666635513 247.1469669342041 97.07506924578286)" id="L1_16"><path d="m504.001 284.881c1.355-2.695 2.137-5.727 2.137-8.943v-14.298c0-9.237-6.303-17.009-14.828-19.297.539-1.808.839-3.719.839-5.7v-14.299c0-11.027-8.972-19.998-19.999-19.998h-33.198c-4.143 0-7.5 3.357-7.5 7.5s3.357 7.5 7.5 7.5h33.198c2.757 0 4.999 2.242 4.999 4.998v14.299c0 2.756-2.242 4.998-4.999 4.998h-64.323c-4.924-8.014-10.36-16.098-16.334-24.295h17.495c4.143 0 7.5-3.357 7.5-7.5s-3.357-7.5-7.5-7.5h-28.928c-2.6-3.273-5.278-6.565-8.05-9.883h3.402c15.246 0 27.649-12.403 27.649-27.648 0-15.246-12.403-27.649-27.649-27.649h-13.202l26.641-62.989c3.733-8.827 2.801-18.866-2.493-26.854-5.295-7.988-14.177-12.757-23.76-12.757h-35.375l.053-.206c2.125-8.283.337-16.909-4.905-23.665s-13.155-10.631-21.707-10.631h-89.328c-8.552 0-16.463 3.875-21.705 10.631s-7.03 15.382-4.905 23.665l.053.206h-35.375c-9.583 0-18.465 4.769-23.76 12.757-5.294 7.987-6.227 18.026-2.493 26.854l6.972 16.483c1.613 3.815 6.014 5.598 9.829 3.985 3.814-1.613 5.6-6.014 3.985-9.829l-6.972-16.483c-1.795-4.244-1.364-8.882 1.182-12.723s6.649-6.044 11.257-6.044h39.222l12.148 47.375c1.028 4.012 5.114 6.434 9.128 5.401 4.012-1.028 6.431-5.115 5.401-9.128-3.39-13.218-12.485-48.688-16.048-62.581-.964-3.761-.152-7.676 2.228-10.743s5.971-4.826 9.854-4.826h89.328c3.883 0 7.474 1.759 9.854 4.826s3.191 6.982 2.228 10.743c-3.556 13.865-12.643 49.302-16.048 62.581-1.029 4.013 1.39 8.1 5.401 9.128 4.027 1.032 8.103-1.403 9.128-5.401l12.148-47.375h39.222c4.607 0 8.711 2.203 11.257 6.044s2.977 8.479 1.182 12.723l-29.112 68.833h-58.257l2.45-9.081c1.079-3.999-1.289-8.115-5.288-9.194-3.999-1.081-8.115 1.288-9.194 5.288l-3.504 12.987h-32.258l-3.504-12.987c-1.079-4-5.197-6.368-9.194-5.288-3.999 1.079-6.367 5.195-5.288 9.194l2.45 9.081h-58.257l-10.46-24.731c-1.613-3.815-6.014-5.598-9.829-3.985-3.814 1.613-5.6 6.014-3.985 9.829l7.989 18.888h-13.202c-15.245 0-27.648 12.403-27.648 27.649 0 15.245 12.403 27.648 27.648 27.648h3.403c-14.123 16.903-25.987 33.18-35.818 49.178h-84.18c-11.027-.001-19.999 8.97-19.999 19.998v14.298c0 6.579 3.207 12.408 8.125 16.055-1.355 2.695-2.137 5.727-2.137 8.943v14.298c0 3.217.781 6.248 2.137 8.943-4.918 3.647-8.125 9.476-8.125 16.055v14.298c0 4.728 1.658 9.072 4.412 12.499-2.754 3.427-4.412 7.77-4.412 12.498v14.298c0 11.027 8.972 19.999 19.999 19.999h47.782c.865 7.026 1.948 14.21 3.26 21.583.4 2.25-.529 4.561-2.366 5.886l-6.161 4.445c-8.721 6.291-14.217 16.047-15.079 26.766-.861 10.719 3.005 21.228 10.608 28.832 15.965 15.965 42.411 13.809 55.598-4.471l10.896-15.101c1.313-1.822 3.665-2.589 5.849-1.911 6.424 1.996 13.354 3.849 20.599 5.508 4.037.923 8.06-1.599 8.984-5.637.925-4.037-1.599-8.06-5.637-8.984-6.874-1.574-13.434-3.328-19.495-5.211-8.347-2.594-17.376.404-22.465 7.46l-10.895 15.101c-7.856 10.887-23.489 11.975-32.826 2.64-4.489-4.49-6.772-10.694-6.264-17.023.509-6.328 3.754-12.089 8.902-15.803l6.162-4.445c6.48-4.677 9.761-12.793 8.357-20.679-8.517-47.857-7.223-87.399 4.07-124.439 13.287-43.582 39.946-81.669 69.854-115.877h65.116c-1.501 10.954-7.418 31.263-30.46 39.748-41 15.097-45.883 43.94-46.071 45.161-.63 4.094 2.179 7.924 6.272 8.554.387.06.771.088 1.149.088 3.639 0 6.834-2.653 7.404-6.36.032-.212 4.156-21.484 36.429-33.366 26.286-9.68 36.758-32.235 39.785-49.197 2.56 1.628 5.411 3.621 8.26 5.959 11.07 9.088 16.607 18.702 16.46 28.577-.062 4.142 3.245 7.55 7.387 7.611 4.161.092 7.549-3.245 7.611-7.387.256-17.082-10.091-30.32-20.73-39.388h93.923c29.954 34.262 56.579 72.339 69.853 115.877 11.293 37.04 12.587 76.582 4.07 124.439-1.403 7.886 1.877 16.002 8.358 20.68l6.161 4.443c5.149 3.716 8.395 9.476 8.903 15.805.508 6.328-1.774 12.532-6.265 17.021-9.339 9.341-24.976 8.24-32.826-2.639l-10.894-15.101c-5.09-7.057-14.119-10.054-22.466-7.46-50.73 15.763-128.609 20.01-193.79 10.567-4.092-.599-7.904 2.248-8.498 6.348s2.248 7.904 6.348 8.498c67.192 9.731 147.722 5.276 200.392-11.089 2.186-.682 4.534.089 5.85 1.911l10.895 15.101c13.205 18.304 39.659 20.407 55.598 4.471 7.604-7.604 11.47-18.112 10.608-28.831s-6.357-20.475-15.079-26.768l-6.16-4.443c-1.838-1.326-2.768-3.637-2.367-5.886 1.312-7.373 2.395-14.558 3.26-21.584h41.921c11.027 0 19.998-8.972 19.998-19.999v-14.298c0-4.728-1.658-9.072-4.411-12.499 2.754-3.427 4.411-7.771 4.411-12.499v-14.298c0-3.217-.781-6.248-2.137-8.943 4.918-3.647 8.125-9.476 8.125-16.055v-14.298c.001-6.578-3.206-12.407-8.124-16.054zm-489.001-23.241c0-2.757 2.242-4.999 4.999-4.999h75.51c-4.392 8.127-8.273 16.211-11.656 24.296h-57.867-5.987c-2.757 0-4.999-2.242-4.999-4.999zm4.999 97.888c-2.757 0-4.999-2.242-4.999-4.999v-14.298c0-2.757 2.242-4.999 4.999-4.999h5.987 42.334c-1.263 7.935-2.131 16.02-2.607 24.296zm55.532-55.563c-1.638 5.373-3.072 10.791-4.317 16.268h-45.228c-2.756 0-4.998-2.242-4.998-4.999v-14.298c0-2.757 2.242-4.999 4.998-4.999h52.153c-.919 2.672-1.79 5.347-2.608 8.028zm-55.532 94.859c-2.757 0-4.999-2.242-4.999-4.999v-14.298c0-2.757 2.242-4.999 4.999-4.999h45.275c-.01 7.899.315 15.985.977 24.296zm103.941-234.009c0-6.975 5.674-12.649 12.648-12.649 297.109.202 184.871.002 238.822 0 6.975 0 12.649 5.675 12.649 12.649s-5.675 12.648-12.649 12.648h-238.821c-6.975 0-12.649-5.674-12.649-12.648zm368.187 131.122c2.757 0 4.999 2.242 4.999 4.999v14.298c0 2.757-2.242 4.999-4.999 4.999h-5.987-45.354c-1.245-5.476-2.679-10.895-4.317-16.268-.817-2.681-1.688-5.356-2.608-8.028h52.279zm-.989 44.295v14.298c0 2.757-2.242 4.999-4.998 4.999h-39.852c-.477-8.276-1.345-16.361-2.607-24.296h42.459c2.756 0 4.998 2.242 4.998 4.999zm-18.989-83.591h13.99c2.756 0 4.998 2.242 4.998 4.999v14.298c0 2.757-2.242 4.999-4.998 4.999h-57.993c-3.383-8.085-7.263-16.168-11.656-24.296zm18.989 137.184c0 2.757-2.242 4.999-4.998 4.999h-40.39c.662-8.311.986-16.397.977-24.296h39.414c2.756 0 4.998 2.242 4.998 4.999v14.298z"/><path d="m229.875 396.49c-3.467-2.267-8.113-1.296-10.382 2.171-2.268 3.466-1.296 8.114 2.171 10.382 10.175 6.656 17.09 8.575 26.128 9.041v8.949c0 4.143 3.357 7.5 7.5 7.5s7.5-3.357 7.5-7.5v-9.53c17.76-3.33 28.133-17.902 30.42-31.511 2.92-17.37-6.169-32.474-23.155-38.479-2.386-.843-4.83-1.73-7.265-2.654v-38.66c8.997 1.092 15.458 4.964 15.643 5.076 3.5 2.186 8.113 1.136 10.316-2.359 2.211-3.504 1.162-8.135-2.341-10.345-.566-.357-10.172-6.287-23.618-7.465v-7.685c0-4.143-3.357-7.5-7.5-7.5s-7.5 3.357-7.5 7.5v8.573c-1.279.274-2.571.598-3.876.991-11.169 3.365-19.516 12.929-21.783 24.958-2.064 10.956 1.437 21.514 9.137 27.554 4.166 3.267 9.367 6.258 16.522 9.427v48.151c-6.421-.411-10.731-1.885-17.917-6.585zm10.651-62.796c-3.276-2.57-4.676-7.54-3.652-12.972.939-4.984 4.306-11.003 10.918-13.216v30.771c-2.747-1.458-5.226-2.984-7.266-4.583zm24.531 27.961c14.921 5.274 14.001 18.057 13.363 21.849-1.266 7.529-6.582 15.538-15.628 18.508v-41.168c.746.269 1.489.537 2.265.811z"/><path d="m167.285 93.747c.616 0 1.243-.077 1.868-.237 4.013-1.029 6.431-5.116 5.401-9.128l-2.58-10.059c-1.029-4.012-5.11-6.428-9.128-5.401-4.013 1.029-6.431 5.116-5.401 9.128l2.58 10.059c.87 3.387 3.917 5.638 7.26 5.638z"/><path d="m344.716 93.747c3.343 0 6.392-2.252 7.26-5.639l2.579-10.059c1.029-4.013-1.39-8.1-5.401-9.128-4.015-1.029-8.1 1.39-9.128 5.401l-2.579 10.059c-1.029 4.013 1.39 8.1 5.401 9.128.625.161 1.252.238 1.868.238z"/><path d="m240.123 69.901h31.754c4.143 0 7.5-3.357 7.5-7.5s-3.357-7.5-7.5-7.5h-31.754c-4.143 0-7.5 3.357-7.5 7.5s3.357 7.5 7.5 7.5z"/></g></defs><g fi:class="KUsePattern" opacity="0.27"><pattern id="pattern_L1_2" width="350" height="350" patternUnits="userSpaceOnUse"><use xlink:href="#L1_2" x="-350" y="-350"/><use xlink:href="#L1_2" x="0" y="-350"/><use xlink:href="#L1_2" x="350" y="-350"/><use xlink:href="#L1_2" x="-350" y="0"/><use xlink:href="#L1_2" x="0" y="0"/><use xlink:href="#L1_2" x="350" y="0"/><use xlink:href="#L1_2" x="-350" y="350"/><use xlink:href="#L1_2" x="0" y="350"/><use xlink:href="#L1_2" x="350" y="350"/></pattern><rect x="0" y="0" width="100%" height="100%" fill="url(#pattern_L1_2)"/></g><g fi:class="KUsePattern" opacity="0.26"><pattern id="pattern_L1_0" width="350" height="350" patternUnits="userSpaceOnUse"><use xlink:href="#L1_0" x="-350" y="-350"/><use xlink:href="#L1_0" x="0" y="-350"/><use xlink:href="#L1_0" x="350" y="-350"/><use xlink:href="#L1_0" x="-350" y="0"/><use xlink:href="#L1_0" x="0" y="0"/><use xlink:href="#L1_0" x="350" y="0"/><use xlink:href="#L1_0" x="-350" y="350"/><use xlink:href="#L1_0" x="0" y="350"/><use xlink:href="#L1_0" x="350" y="350"/></pattern><rect x="0" y="0" width="100%" height="100%" fill="url(#pattern_L1_0)"/></g><g fi:class="KUsePattern" opacity="0.2"><pattern id="pattern_L1_1" width="350" height="350" patternUnits="userSpaceOnUse"><use xlink:href="#L1_1" x="-350" y="-350"/><use xlink:href="#L1_1" x="0" y="-350"/><use xlink:href="#L1_1" x="350" y="-350"/><use xlink:href="#L1_1" x="-350" y="0"/><use xlink:href="#L1_1" x="0" y="0"/><use xlink:href="#L1_1" x="350" y="0"/><use xlink:href="#L1_1" x="-350" y="350"/><use xlink:href="#L1_1" x="0" y="350"/><use xlink:href="#L1_1" x="350" y="350"/></pattern><rect x="0" y="0" width="100%" height="100%" fill="url(#pattern_L1_1)"/></g><g fi:class="KUsePattern" transform="matrix(1 0 0 1 20 20)" opacity="0.27"><pattern id="pattern_UNKNOWN" width="350" height="350" patternUnits="userSpaceOnUse"><use xlink:href="#UNKNOWN" x="-350" y="-350"/><use xlink:href="#UNKNOWN" x="0" y="-350"/><use xlink:href="#UNKNOWN" x="350" y="-350"/><use xlink:href="#UNKNOWN" x="-350" y="0"/><use xlink:href="#UNKNOWN" x="0" y="0"/><use xlink:href="#UNKNOWN" x="350" y="0"/><use xlink:href="#UNKNOWN" x="-350" y="350"/><use xlink:href="#UNKNOWN" x="0" y="350"/><use xlink:href="#UNKNOWN" x="350" y="350"/></pattern><rect x="0" y="0" width="100%" height="100%" fill="url(#pattern_UNKNOWN)"/></g><g fi:class="KUsePattern" opacity="0.16"><pattern id="pattern_L1_3" width="350" height="350" patternUnits="userSpaceOnUse"><use xlink:href="#L1_3" x="-350" y="-350"/><use xlink:href="#L1_3" x="0" y="-350"/><use xlink:href="#L1_3" x="350" y="-350"/><use xlink:href="#L1_3" x="-350" y="0"/><use xlink:href="#L1_3" x="0" y="0"/><use xlink:href="#L1_3" x="350" y="0"/><use xlink:href="#L1_3" x="-350" y="350"/><use xlink:href="#L1_3" x="0" y="350"/><use xlink:href="#L1_3" x="350" y="350"/></pattern><rect x="0" y="0" width="100%" height="100%" fill="url(#pattern_L1_3)"/></g><g fi:class="KUsePattern" opacity="0.2"><pattern id="pattern_L1_4" width="350" height="350" patternUnits="userSpaceOnUse"><use xlink:href="#L1_4" x="-350" y="-350"/><use xlink:href="#L1_4" x="0" y="-350"/><use xlink:href="#L1_4" x="350" y="-350"/><use xlink:href="#L1_4" x="-350" y="0"/><use xlink:href="#L1_4" x="0" y="0"/><use xlink:href="#L1_4" x="350" y="0"/><use xlink:href="#L1_4" x="-350" y="350"/><use xlink:href="#L1_4" x="0" y="350"/><use xlink:href="#L1_4" x="350" y="350"/></pattern><rect x="0" y="0" width="100%" height="100%" fill="url(#pattern_L1_4)"/></g><g fi:class="KUsePattern" opacity="0.19"><pattern id="pattern_L1_5" width="350" height="350" patternUnits="userSpaceOnUse"><use xlink:href="#L1_5" x="-350" y="-350"/><use xlink:href="#L1_5" x="0" y="-350"/><use xlink:href="#L1_5" x="350" y="-350"/><use xlink:href="#L1_5" x="-350" y="0"/><use xlink:href="#L1_5" x="0" y="0"/><use xlink:href="#L1_5" x="350" y="0"/><use xlink:href="#L1_5" x="-350" y="350"/><use xlink:href="#L1_5" x="0" y="350"/><use xlink:href="#L1_5" x="350" y="350"/></pattern><rect x="0" y="0" width="100%" height="100%" fill="url(#pattern_L1_5)"/></g><g fi:class="KUsePattern" transform="matrix(1 0 0 1 20 20)" opacity="0.19"><pattern id="pattern_UNKNOWN" width="350" height="350" patternUnits="userSpaceOnUse"><use xlink:href="#UNKNOWN" x="-350" y="-350"/><use xlink:href="#UNKNOWN" x="0" y="-350"/><use xlink:href="#UNKNOWN" x="350" y="-350"/><use xlink:href="#UNKNOWN" x="-350" y="0"/><use xlink:href="#UNKNOWN" x="0" y="0"/><use xlink:href="#UNKNOWN" x="350" y="0"/><use xlink:href="#UNKNOWN" x="-350" y="350"/><use xlink:href="#UNKNOWN" x="0" y="350"/><use xlink:href="#UNKNOWN" x="350" y="350"/></pattern><rect x="0" y="0" width="100%" height="100%" fill="url(#pattern_UNKNOWN)"/></g><g fi:class="KUsePattern" opacity="0.24"><pattern id="pattern_L1_6" width="350" height="350" patternUnits="userSpaceOnUse"><use xlink:href="#L1_6" x="-350" y="-350"/><use xlink:href="#L1_6" x="0" y="-350"/><use xlink:href="#L1_6" x="350" y="-350"/><use xlink:href="#L1_6" x="-350" y="0"/><use xlink:href="#L1_6" x="0" y="0"/><use xlink:href="#L1_6" x="350" y="0"/><use xlink:href="#L1_6" x="-350" y="350"/><use xlink:href="#L1_6" x="0" y="350"/><use xlink:href="#L1_6" x="350" y="350"/></pattern><rect x="0" y="0" width="100%" height="100%" fill="url(#pattern_L1_6)"/></g><g fi:class="KUsePattern" opacity="0.31"><pattern id="pattern_L1_7" width="350" height="350" patternUnits="userSpaceOnUse"><use xlink:href="#L1_7" x="-350" y="-350"/><use xlink:href="#L1_7" x="0" y="-350"/><use xlink:href="#L1_7" x="350" y="-350"/><use xlink:href="#L1_7" x="-350" y="0"/><use xlink:href="#L1_7" x="0" y="0"/><use xlink:href="#L1_7" x="350" y="0"/><use xlink:href="#L1_7" x="-350" y="350"/><use xlink:href="#L1_7" x="0" y="350"/><use xlink:href="#L1_7" x="350" y="350"/></pattern><rect x="0" y="0" width="100%" height="100%" fill="url(#pattern_L1_7)"/></g><g fi:class="KUsePattern" opacity="0.28"><pattern id="pattern_L1_8" width="350" height="350" patternUnits="userSpaceOnUse"><use xlink:href="#L1_8" x="-350" y="-350"/><use xlink:href="#L1_8" x="0" y="-350"/><use xlink:href="#L1_8" x="350" y="-350"/><use xlink:href="#L1_8" x="-350" y="0"/><use xlink:href="#L1_8" x="0" y="0"/><use xlink:href="#L1_8" x="350" y="0"/><use xlink:href="#L1_8" x="-350" y="350"/><use xlink:href="#L1_8" x="0" y="350"/><use xlink:href="#L1_8" x="350" y="350"/></pattern><rect x="0" y="0" width="100%" height="100%" fill="url(#pattern_L1_8)"/></g><g fi:class="KUsePattern" opacity="0.25"><pattern id="pattern_L1_9" width="350" height="350" patternUnits="userSpaceOnUse"><use xlink:href="#L1_9" x="-350" y="-350"/><use xlink:href="#L1_9" x="0" y="-350"/><use xlink:href="#L1_9" x="350" y="-350"/><use xlink:href="#L1_9" x="-350" y="0"/><use xlink:href="#L1_9" x="0" y="0"/><use xlink:href="#L1_9" x="350" y="0"/><use xlink:href="#L1_9" x="-350" y="350"/><use xlink:href="#L1_9" x="0" y="350"/><use xlink:href="#L1_9" x="350" y="350"/></pattern><rect x="0" y="0" width="100%" height="100%" fill="url(#pattern_L1_9)"/></g><g fi:class="KUsePattern" opacity="0.21"><pattern id="pattern_L1_10" width="350" height="350" patternUnits="userSpaceOnUse"><use xlink:href="#L1_10" x="-350" y="-350"/><use xlink:href="#L1_10" x="0" y="-350"/><use xlink:href="#L1_10" x="350" y="-350"/><use xlink:href="#L1_10" x="-350" y="0"/><use xlink:href="#L1_10" x="0" y="0"/><use xlink:href="#L1_10" x="350" y="0"/><use xlink:href="#L1_10" x="-350" y="350"/><use xlink:href="#L1_10" x="0" y="350"/><use xlink:href="#L1_10" x="350" y="350"/></pattern><rect x="0" y="0" width="100%" height="100%" fill="url(#pattern_L1_10)"/></g><g fi:class="KUsePattern" opacity="0.42"><pattern id="pattern_L1_11" width="350" height="350" patternUnits="userSpaceOnUse"><use xlink:href="#L1_11" x="-350" y="-350"/><use xlink:href="#L1_11" x="0" y="-350"/><use xlink:href="#L1_11" x="350" y="-350"/><use xlink:href="#L1_11" x="-350" y="0"/><use xlink:href="#L1_11" x="0" y="0"/><use xlink:href="#L1_11" x="350" y="0"/><use xlink:href="#L1_11" x="-350" y="350"/><use xlink:href="#L1_11" x="0" y="350"/><use xlink:href="#L1_11" x="350" y="350"/></pattern><rect x="0" y="0" width="100%" height="100%" fill="url(#pattern_L1_11)"/></g><g fi:class="KUsePattern" opacity="0.32"><pattern id="pattern_L1_12" width="350" height="350" patternUnits="userSpaceOnUse"><use xlink:href="#L1_12" x="-350" y="-350"/><use xlink:href="#L1_12" x="0" y="-350"/><use xlink:href="#L1_12" x="350" y="-350"/><use xlink:href="#L1_12" x="-350" y="0"/><use xlink:href="#L1_12" x="0" y="0"/><use xlink:href="#L1_12" x="350" y="0"/><use xlink:href="#L1_12" x="-350" y="350"/><use xlink:href="#L1_12" x="0" y="350"/><use xlink:href="#L1_12" x="350" y="350"/></pattern><rect x="0" y="0" width="100%" height="100%" fill="url(#pattern_L1_12)"/></g><g fi:class="KUsePattern" opacity="0.24"><pattern id="pattern_L1_13" width="350" height="350" patternUnits="userSpaceOnUse"><use xlink:href="#L1_13" x="-350" y="-350"/><use xlink:href="#L1_13" x="0" y="-350"/><use xlink:href="#L1_13" x="350" y="-350"/><use xlink:href="#L1_13" x="-350" y="0"/><use xlink:href="#L1_13" x="0" y="0"/><use xlink:href="#L1_13" x="350" y="0"/><use xlink:href="#L1_13" x="-350" y="350"/><use xlink:href="#L1_13" x="0" y="350"/><use xlink:href="#L1_13" x="350" y="350"/></pattern><rect x="0" y="0" width="100%" height="100%" fill="url(#pattern_L1_13)"/></g><g fi:class="KUsePattern" opacity="0.24"><pattern id="pattern_L1_14" width="350" height="350" patternUnits="userSpaceOnUse"><use xlink:href="#L1_14" x="-350" y="-350"/><use xlink:href="#L1_14" x="0" y="-350"/><use xlink:href="#L1_14" x="350" y="-350"/><use xlink:href="#L1_14" x="-350" y="0"/><use xlink:href="#L1_14" x="0" y="0"/><use xlink:href="#L1_14" x="350" y="0"/><use xlink:href="#L1_14" x="-350" y="350"/><use xlink:href="#L1_14" x="0" y="350"/><use xlink:href="#L1_14" x="350" y="350"/></pattern><rect x="0" y="0" width="100%" height="100%" fill="url(#pattern_L1_14)"/></g><g fi:class="KUsePattern" opacity="0.29"><pattern id="pattern_L1_15" width="350" height="350" patternUnits="userSpaceOnUse"><use xlink:href="#L1_15" x="-350" y="-350"/><use xlink:href="#L1_15" x="0" y="-350"/><use xlink:href="#L1_15" x="350" y="-350"/><use xlink:href="#L1_15" x="-350" y="0"/><use xlink:href="#L1_15" x="0" y="0"/><use xlink:href="#L1_15" x="350" y="0"/><use xlink:href="#L1_15" x="-350" y="350"/><use xlink:href="#L1_15" x="0" y="350"/><use xlink:href="#L1_15" x="350" y="350"/></pattern><rect x="0" y="0" width="100%" height="100%" fill="url(#pattern_L1_15)"/></g><g fi:class="KUsePattern" opacity="0.25"><pattern id="pattern_L1_16" width="350" height="350" patternUnits="userSpaceOnUse"><use xlink:href="#L1_16" x="-350" y="-350"/><use xlink:href="#L1_16" x="0" y="-350"/><use xlink:href="#L1_16" x="350" y="-350"/><use xlink:href="#L1_16" x="-350" y="0"/><use xlink:href="#L1_16" x="0" y="0"/><use xlink:href="#L1_16" x="350" y="0"/><use xlink:href="#L1_16" x="-350" y="350"/><use xlink:href="#L1_16" x="0" y="350"/><use xlink:href="#L1_16" x="350" y="350"/></pattern><rect x="0" y="0" width="100%" height="100%" fill="url(#pattern_L1_16)"/></g></svg>